<?xml version="1.0" encoding="utf-8"?>
<!-- Generator: Adobe Illustrator 22.1.0, SVG Export Plug-In . SVG Version: 6.00 Build 0)  -->
<svg version="1.1" id="Layer_1" xmlns="http://www.w3.org/2000/svg" xmlns:xlink="http://www.w3.org/1999/xlink" x="0px" y="0px"
	 viewBox="0 0 1879.5 1289.3" style="enable-background:new 0 0 1879.5 1289.3;" xml:space="preserve">
<style type="text/css">
	.st0{opacity:0.4;}
	.st1{fill:none;stroke:#73769B;stroke-width:1.88;stroke-miterlimit:10;}
	.st2{fill:none;stroke:#73769B;stroke-width:1.41;stroke-miterlimit:10;}
	.st3{fill:none;stroke:#7A91B7;stroke-width:1.68;stroke-miterlimit:10;}
	.st4{fill:none;stroke:url(#SVGID_1_);stroke-width:2.86;stroke-miterlimit:10;}
	.st5{fill:none;stroke:url(#SVGID_2_);stroke-width:2.86;stroke-miterlimit:10;}
	.st6{enable-background:new    ;}
	.st7{fill:#AFB5D0;}
	.st8{fill:#F5F5FB;}
	.st9{fill:#E6007A;}
	.st10{fill:#E6DEF5;}
	.st11{fill:#BFB9DF;}
	.st12{fill:none;stroke:#F5F5FB;stroke-width:10.99;stroke-miterlimit:10;}
	.st13{fill:#5E6679;}
	.st14{fill:#FFFFFF;}
	.st15{fill:none;stroke:#FFFFFF;stroke-width:1.88;stroke-miterlimit:10;}
	.st16{opacity:0.5;}
</style>
<title>Asset 1</title>
<g id="Layer_2_1_">
	<g id="Layer_1-2">
		<g class="st0">
			<path class="st1" d="M827.8,299C739,393.6,689.7,518.5,689.9,648.2c0,147.3,62.3,280,162,373.3"/>
			<path class="st2" d="M924.1,949.3c-166.2-152.9-177-411.7-24.1-577.9l0.1-0.1"/>
			<path class="st1" d="M900.1,371.2c-153,166.2-142.3,424.9,23.9,577.9l0.1,0.1"/>
			<path class="st1" d="M1000.1,873.2c-120.9-110.9-129-298.9-18-419.8c0,0,0,0,0-0.1"/>
			<path class="st1" d="M1579.3,1005.8c88.8-94.6,138.1-219.5,137.9-349.2c0-147.3-62.3-280-162-373.3"/>
			<path class="st2" d="M1483,355.5c166.3,153,177,411.7,24.1,578c0,0,0,0-0.1,0.1"/>
			<path class="st1" d="M1507,935c153-166.2,142.2-425-24-578l0,0"/>
			<path class="st1" d="M1407,433c120.9,111,128.9,298.9,18,419.8l0,0"/>
		</g>
		<line class="st3" x1="1581.5" y1="1004.1" x2="1705.1" y2="1114.5"/>
		<line class="st3" x1="706.2" y1="187.2" x2="827.8" y2="299"/>
		<line class="st3" x1="851.8" y1="1021.5" x2="744.1" y2="1134.2"/>
		<line class="st3" x1="1675.9" y1="153.4" x2="1555.2" y2="283.3"/>
		
			<linearGradient id="SVGID_1_" gradientUnits="userSpaceOnUse" x1="1168.6285" y1="1583.2534" x2="1168.6285" y2="1964.296" gradientTransform="matrix(1 0 0 -1 0 1964.2834)">
			<stop  offset="0.46" style="stop-color:#FFFFFF"/>
			<stop  offset="0.5" style="stop-color:#FFFFFF;stop-opacity:0.97"/>
			<stop  offset="0.58" style="stop-color:#FFFFFF;stop-opacity:0.88"/>
			<stop  offset="0.67" style="stop-color:#FFFFFF;stop-opacity:0.73"/>
			<stop  offset="0.77" style="stop-color:#FFFFFF;stop-opacity:0.52"/>
			<stop  offset="0.89" style="stop-color:#FFFFFF;stop-opacity:0.26"/>
			<stop  offset="1" style="stop-color:#FFFFFF;stop-opacity:0"/>
		</linearGradient>
		<path class="st4" d="M645.6,1l348.7,347.7c17,17,50.7,30.9,74.7,30.9l241.1-0.1c24.1,0,56.8-14.7,72.9-32.7L1691.6,1"/>
		
			<linearGradient id="SVGID_2_" gradientUnits="userSpaceOnUse" x1="1241.4714" y1="1056.1135" x2="1241.4714" y2="675.0314" gradientTransform="matrix(1 0 0 -1 0 1964.2834)">
			<stop  offset="0.46" style="stop-color:#FFFFFF"/>
			<stop  offset="0.5" style="stop-color:#FFFFFF;stop-opacity:0.97"/>
			<stop  offset="0.58" style="stop-color:#FFFFFF;stop-opacity:0.88"/>
			<stop  offset="0.67" style="stop-color:#FFFFFF;stop-opacity:0.73"/>
			<stop  offset="0.77" style="stop-color:#FFFFFF;stop-opacity:0.52"/>
			<stop  offset="0.89" style="stop-color:#FFFFFF;stop-opacity:0.26"/>
			<stop  offset="1" style="stop-color:#FFFFFF;stop-opacity:0"/>
		</linearGradient>
		<path class="st5" d="M1764.5,1288.2l-348.7-347.7c-17-17-50.7-30.9-74.7-30.9l-241.1,0.2c-24.1,0-56.9,14.7-72.9,32.7
			l-308.6,345.8"/>
		<g class="st6">
			<path class="st7" d="M1034.4,725.4v-32.6h4.3v32.6H1034.4z"/>
			<path class="st7" d="M1050,699.6v4.2c1.8-3.1,4.6-4.6,8.4-4.6c2.9,0,5.2,0.9,7.1,2.8c1.9,1.9,2.9,4.6,2.9,8.1v15.3h-4.2v-14.6
				c0-2.6-0.6-4.6-1.9-5.9c-1.3-1.3-3-2-5.2-2s-4,0.7-5.2,2c-1.3,1.3-1.9,3.3-1.9,5.9v14.6h-4.3v-25.8H1050z"/>
			<path class="st7" d="M1083.7,721.9h3.5v3.5h-4.3c-4.5,0-6.7-2.2-6.7-6.6v-15.7h-3.3v-3.5h3.3v-6.4h4.3v6.4h6.7v3.5h-6.7v15.7
				c0,1.2,0.2,2,0.7,2.4S1082.5,721.9,1083.7,721.9z"/>
			<path class="st7" d="M1102.8,725.8c-3.7,0-6.7-1.2-9-3.7c-2.3-2.4-3.5-5.7-3.5-9.7s1.2-7.2,3.5-9.7c2.4-2.4,5.4-3.6,9.1-3.6
				s6.8,1.2,9,3.5s3.4,5.2,3.4,8.8c0,0.9-0.1,1.8-0.2,2.5h-20.6c0.1,2.6,0.9,4.6,2.4,6.1s3.4,2.2,5.7,2.2c1.8,0,3.2-0.4,4.4-1.2
				c1.2-0.8,2.1-1.8,2.7-3.1h4.6c-0.8,2.3-2.2,4.1-4.2,5.6S1105.8,725.8,1102.8,725.8z M1108.5,704.9c-1.5-1.5-3.4-2.2-5.7-2.2
				c-2.3,0-4.2,0.7-5.7,2.2s-2.3,3.5-2.5,6h16.2C1110.9,708.4,1110.1,706.4,1108.5,704.9z"/>
			<path class="st7" d="M1125,699.6v4.4c1.5-3.2,4.2-4.8,7.9-4.8v4.5h-1.1c-2.2,0-3.9,0.6-5,1.7c-1.1,1.1-1.7,3.1-1.7,6v14.1h-4.3
				v-25.8h4.2V699.6z"/>
			<path class="st7" d="M1139.9,722.2c-2.4-2.4-3.6-5.7-3.6-9.6s1.2-7.2,3.7-9.7s5.6-3.7,9.3-3.7c3.7,0,6.8,1.2,9.3,3.7
				s3.7,5.7,3.7,9.6s-1.3,7.2-3.9,9.6c-2.6,2.5-5.7,3.7-9.5,3.7C1145.3,725.8,1142.2,724.6,1139.9,722.2z M1149,722.3
				c2.4,0,4.5-0.9,6.3-2.6c1.8-1.7,2.7-4.1,2.7-7.2s-0.8-5.5-2.5-7.2s-3.8-2.6-6.2-2.6s-4.5,0.9-6.1,2.6c-1.6,1.7-2.4,4.1-2.4,7.2
				s0.8,5.5,2.4,7.2C1144.6,721.4,1146.6,722.3,1149,722.3z"/>
			<path class="st7" d="M1181.6,699.2c3.5,0,6.5,1.2,8.8,3.6c2.3,2.4,3.5,5.6,3.5,9.5s-1.2,7.2-3.5,9.7c-2.4,2.5-5.3,3.8-8.8,3.8
				c-2.2,0-4.1-0.5-5.8-1.6c-1.7-1.1-2.9-2.4-3.8-4.1v17.5h-4.3v-38.1h4.3v5.2c0.9-1.7,2.1-3,3.8-4
				C1177.4,699.7,1179.4,699.2,1181.6,699.2z M1180.7,722.2c2.4,0,4.5-0.9,6.2-2.7s2.6-4.2,2.6-7.1c0-2.9-0.9-5.2-2.6-6.9
				s-3.8-2.5-6.2-2.5s-4.5,0.9-6.2,2.6c-1.7,1.8-2.6,4.1-2.6,7s0.9,5.2,2.6,7C1176.3,721.3,1178.3,722.2,1180.7,722.2z"/>
			<path class="st7" d="M1210.1,725.8c-3.7,0-6.7-1.2-9-3.7c-2.3-2.4-3.5-5.7-3.5-9.7s1.2-7.2,3.5-9.7c2.4-2.4,5.4-3.6,9.1-3.6
				s6.8,1.2,9,3.5s3.4,5.2,3.4,8.8c0,0.9-0.1,1.8-0.2,2.5h-20.6c0.1,2.6,0.9,4.6,2.4,6.1s3.4,2.2,5.7,2.2c1.8,0,3.2-0.4,4.4-1.2
				s2.1-1.8,2.7-3.1h4.6c-0.8,2.3-2.2,4.1-4.2,5.6S1213.1,725.8,1210.1,725.8z M1215.8,704.9c-1.5-1.5-3.4-2.2-5.7-2.2
				c-2.3,0-4.2,0.7-5.7,2.2s-2.3,3.5-2.5,6h16.2C1218.2,708.4,1217.4,706.4,1215.8,704.9z"/>
			<path class="st7" d="M1232.3,699.6v4.4c1.5-3.2,4.2-4.8,7.9-4.8v4.5h-1.1c-2.2,0-3.9,0.6-5,1.7c-1.1,1.1-1.7,3.1-1.7,6v14.1h-4.3
				v-25.8h4.2V699.6z"/>
			<path class="st7" d="M1247.1,722c-2.4-2.5-3.5-5.8-3.5-9.7s1.2-7.1,3.5-9.5s5.3-3.6,8.8-3.6c2.2,0,4.1,0.5,5.8,1.6
				c1.6,1,2.9,2.4,3.7,4v-5.2h4.3v25.8h-4.3v-5.3c-0.8,1.7-2.1,3.1-3.7,4.1c-1.6,1.1-3.6,1.6-5.8,1.6
				C1252.4,725.8,1249.5,724.6,1247.1,722z M1262.9,719.5c1.7-1.8,2.6-4.1,2.6-7s-0.9-5.3-2.6-7c-1.7-1.8-3.8-2.6-6.2-2.6
				c-2.4,0-4.5,0.8-6.2,2.5s-2.6,4-2.6,6.9s0.9,5.3,2.6,7.1s3.8,2.7,6.2,2.7C1259.1,722.2,1261.2,721.3,1262.9,719.5z"/>
			<path class="st7" d="M1290.6,699.2c3.5,0,6.5,1.2,8.8,3.6c2.3,2.4,3.5,5.6,3.5,9.5s-1.2,7.2-3.5,9.7c-2.4,2.5-5.3,3.8-8.8,3.8
				c-2.2,0-4.1-0.5-5.8-1.6s-2.9-2.4-3.8-4.1v5.3h-4.3v-34.8h4.3v14.2c0.9-1.7,2.1-3,3.8-4C1286.5,699.7,1288.4,699.2,1290.6,699.2z
				 M1289.8,722.2c2.4,0,4.5-0.9,6.2-2.7s2.6-4.2,2.6-7.1c0-2.9-0.9-5.2-2.6-6.9s-3.8-2.5-6.2-2.5c-2.4,0-4.5,0.9-6.2,2.6
				c-1.7,1.8-2.6,4.1-2.6,7s0.9,5.2,2.6,7S1287.4,722.2,1289.8,722.2z"/>
			<path class="st7" d="M1312.6,694.6c-0.6,0.6-1.3,0.8-2.1,0.8s-1.5-0.3-2-0.8s-0.8-1.3-0.8-2.1s0.3-1.5,0.8-2.1s1.2-0.8,2-0.8
				s1.5,0.3,2,0.8s0.8,1.3,0.8,2.1S1313.1,694,1312.6,694.6z M1308.3,725.4v-25.8h4.3v25.8H1308.3z"/>
			<path class="st7" d="M1319.7,725.4v-34.8h4.3v34.8H1319.7z"/>
			<path class="st7" d="M1335.2,694.6c-0.6,0.6-1.3,0.8-2.1,0.8s-1.5-0.3-2-0.8s-0.8-1.3-0.8-2.1s0.3-1.5,0.8-2.1s1.2-0.8,2-0.8
				s1.5,0.3,2,0.8s0.8,1.3,0.8,2.1S1335.8,694,1335.2,694.6z M1331,725.4v-25.8h4.3v25.8H1331z"/>
			<path class="st7" d="M1350.8,721.9h3.5v3.5h-4.3c-4.5,0-6.7-2.2-6.7-6.6v-15.7h-3.3v-3.5h3.3v-6.4h4.3v6.4h6.7v3.5h-6.7v15.7
				c0,1.2,0.2,2,0.7,2.4S1349.6,721.9,1350.8,721.9z"/>
			<path class="st7" d="M1366.3,725l-10.2-25.4h4.7l7.9,20.9l8-20.9h4.4l-15.6,37.9h-4.4L1366.3,725z"/>
		</g>
		<g class="st6">
			<path class="st7" d="M1129.9,751.1h11.7c3.3,0,5.9,0.8,7.7,2.4c1.8,1.6,2.7,3.7,2.7,6.2c0,3.6-2.1,6-6.3,7.2
				c2.1,0.3,3.8,1.3,5.1,2.8c1.3,1.5,1.9,3.3,1.9,5.3c0,2.5-1,4.5-2.9,6.2c-1.9,1.6-4.5,2.4-7.7,2.4h-12.2L1129.9,751.1
				L1129.9,751.1z M1134.2,754.6v10.7h7.2c2,0,3.5-0.5,4.6-1.4c1.1-1,1.7-2.3,1.7-3.9s-0.6-3-1.7-3.9c-1.1-1-2.7-1.5-4.6-1.5
				L1134.2,754.6L1134.2,754.6z M1134.2,780.3h7.7c2.1,0,3.7-0.5,4.9-1.6c1.2-1,1.8-2.5,1.8-4.3s-0.6-3.2-1.9-4.3
				c-1.3-1-3-1.6-5.1-1.6h-7.4V780.3z"/>
			<path class="st7" d="M1162.9,757.9v4.4c1.5-3.2,4.2-4.8,7.9-4.8v4.5h-1.1c-2.2,0-3.9,0.6-5,1.7c-1.1,1.1-1.7,3.1-1.7,6v14.1h-4.3
				V758L1162.9,757.9L1162.9,757.9z"/>
			<path class="st7" d="M1180.2,752.9c-0.6,0.6-1.3,0.8-2.1,0.8c-0.8,0-1.5-0.3-2-0.8c-0.5-0.6-0.8-1.3-0.8-2.1s0.3-1.5,0.8-2.1
				s1.2-0.8,2-0.8s1.5,0.3,2,0.8s0.8,1.3,0.8,2.1S1180.8,752.4,1180.2,752.9z M1176,783.7v-25.8h4.3v25.8H1176z"/>
			<path class="st7" d="M1189.1,780.4c-2.4-2.5-3.5-5.8-3.5-9.7s1.2-7.1,3.5-9.5s5.3-3.6,8.8-3.6c2.2,0,4.1,0.5,5.8,1.6
				c1.6,1,2.9,2.4,3.7,4V749h4.3v34.8h-4.3v-5.3c-0.8,1.7-2.1,3.1-3.7,4.1s-3.6,1.6-5.8,1.6C1194.4,784.2,1191.5,782.9,1189.1,780.4
				z M1204.9,777.8c1.7-1.8,2.6-4.1,2.6-7s-0.9-5.3-2.6-7c-1.7-1.8-3.8-2.6-6.2-2.6s-4.5,0.8-6.2,2.5s-2.6,4-2.6,6.9
				s0.9,5.3,2.6,7.1s3.8,2.7,6.2,2.7C1201.1,780.5,1203.2,779.6,1204.9,777.8z"/>
			<path class="st7" d="M1220.7,780.4c-2.4-2.5-3.5-5.8-3.5-9.7s1.2-7.1,3.5-9.5s5.3-3.6,8.8-3.6c2.2,0,4.1,0.5,5.8,1.6
				c1.6,1,2.9,2.4,3.7,4V758h4.3v26.5c0,3.5-1.1,6.4-3.4,8.7c-2.3,2.2-5.2,3.4-8.7,3.4s-6.4-0.8-8.7-2.4c-2.3-1.6-3.6-3.8-3.9-6.4
				h4.2c0.4,1.5,1.4,2.7,2.9,3.7s3.4,1.5,5.6,1.5s4.1-0.7,5.6-2.2s2.2-3.5,2.2-6.1v-5.9c-0.8,1.7-2.1,3.1-3.7,4.1s-3.6,1.6-5.8,1.6
				C1225.9,784.2,1223,782.9,1220.7,780.4z M1236.4,777.8c1.7-1.8,2.6-4.1,2.6-7s-0.9-5.3-2.6-7c-1.7-1.8-3.8-2.6-6.2-2.6
				s-4.5,0.8-6.2,2.5s-2.6,4-2.6,6.9s0.9,5.3,2.6,7.1s3.8,2.7,6.2,2.7C1232.6,780.5,1234.7,779.6,1236.4,777.8z"/>
			<path class="st7" d="M1261.2,784.2c-3.7,0-6.7-1.2-9-3.7c-2.3-2.4-3.5-5.7-3.5-9.7s1.2-7.2,3.5-9.7c2.4-2.4,5.4-3.6,9.1-3.6
				s6.8,1.2,9,3.5c2.3,2.3,3.4,5.2,3.4,8.8c0,0.9-0.1,1.8-0.2,2.5h-20.6c0.1,2.6,0.9,4.6,2.4,6.1s3.4,2.2,5.7,2.2
				c1.8,0,3.2-0.4,4.4-1.2c1.2-0.8,2.1-1.8,2.7-3.1h4.6c-0.8,2.3-2.2,4.1-4.2,5.6C1266.7,783.4,1264.2,784.2,1261.2,784.2z
				 M1267,763.2c-1.5-1.5-3.4-2.2-5.7-2.2c-2.3,0-4.2,0.7-5.7,2.2s-2.3,3.5-2.5,6h16.2C1269.3,766.7,1268.5,764.7,1267,763.2z"/>
			<path class="st7" d="M1278.1,765.2c0-2.2,0.9-4,2.7-5.5c1.8-1.5,4.1-2.2,7-2.2s5.1,0.7,6.8,2.2c1.6,1.5,2.5,3.5,2.7,6h-4.4
				c-0.1-1.4-0.5-2.6-1.5-3.5c-0.9-0.9-2.2-1.3-3.8-1.3c-1.6,0-2.9,0.4-3.8,1.2s-1.4,1.8-1.4,3s0.5,2.1,1.6,2.8
				c1,0.7,2.3,1.1,3.8,1.4s3,0.6,4.5,1s2.8,1.1,3.8,2.2c1.1,1.1,1.6,2.6,1.6,4.6s-0.9,3.7-2.7,5c-1.8,1.4-4.1,2-7,2
				s-5.2-0.7-6.9-2.2s-2.7-3.4-2.8-6h4.4c0.1,1.4,0.6,2.6,1.5,3.5c1,0.9,2.3,1.3,4,1.3s3-0.4,4-1.1c1-0.7,1.4-1.6,1.4-2.8
				s-0.4-2-1.1-2.7c-0.8-0.7-1.7-1.1-2.8-1.4c-1.1-0.3-2.4-0.5-3.7-0.9c-1.3-0.3-2.6-0.7-3.7-1.1c-1.1-0.4-2.1-1.1-2.8-2
				C1278.5,767.9,1278.1,766.7,1278.1,765.2z"/>
		</g>
		<path class="st8" d="M1212.5,481.5c-29.3,0.1-53.1,23.9-53.2,53.2c0,5.9,0.9,11.7,2.8,17.3c1.3,3.8,5.4,5.9,9.3,4.6
			c3.8-1.3,5.9-5.4,4.6-9.3c-1.6-4.3-2.3-8.9-2.1-13.5c0.6-21.2,18.3-37.8,39.5-37.2c21.2,0.6,37.8,18.3,37.2,39.5
			c-0.6,19.8-16.2,35.9-36,37.1c0,0-7.5,0.5-11.2,0.9c-1.4,0.2-2.7,0.5-4.1,0.8c-0.2,0.2-0.5,0.2-0.7,0l0,0c-0.1-0.2-0.1-0.4,0-0.6
			l1.2-6.3l7-31.5c0.8-3.9-1.7-7.8-5.6-8.7c-3.9-0.8-7.8,1.7-8.7,5.6c0,0-16.7,77.2-16.7,77.9c-1,3.7,1.3,7.6,5,8.5l0,0h0.1h0.4
			c3.7,1,7.6-1.3,8.5-5c0-0.1,0-0.1,0-0.2c0-0.1,0-0.2,0-0.3c0.2-0.9,2.3-11.2,2.3-11.2c1.6-7.8,7.8-13.7,15.7-14.9
			c1.6-0.2,8.4-0.7,8.4-0.7c29.2-3,50.4-29.1,47.4-58.3C1261.1,502.7,1239.1,482.3,1212.5,481.5L1212.5,481.5z"/>
		<path class="st9" d="M1215.8,604.1c-4.8-1-9.5,2.1-10.5,6.9v0.1c-1,4.8,2,9.5,6.7,10.5h0.3c4.7,1.1,9.4-1.7,10.5-6.4l0,0v-0.1
			v-0.5C1223.6,609.8,1220.5,605.2,1215.8,604.1z"/>
		<polygon class="st10" points="1098.7,532.2 1071.4,577.4 1098.7,565 		"/>
		<polygon class="st11" points="1098.7,565 1071.4,577.4 1098.7,593.5 		"/>
		<polygon class="st8" points="1125.9,577.4 1098.7,532.2 1098.7,565 		"/>
		<polygon class="st10" points="1098.7,593.5 1125.9,577.4 1098.7,565 		"/>
		<polygon class="st10" points="1071.4,582.6 1098.7,621 1098.7,598.7 		"/>
		<polygon class="st8" points="1098.7,598.7 1098.7,621 1125.9,582.6 		"/>
		<path class="st8" d="M1296.3,577.4l-9.5,9.5l-9.5-9.5l9.5-9.5L1296.3,577.4z M1319.4,554.3l16.3,16.3l9.5-9.5l-25.8-25.8
			l-25.9,25.8l9.5,9.5L1319.4,554.3z M1352.1,567.9l-9.5,9.5l9.5,9.5l9.5-9.5L1352.1,567.9z M1319.4,600.5l-16.3-16.3l-9.5,9.5
			l25.8,25.8l25.8-25.8l-9.5-9.5L1319.4,600.5z M1319.4,586.9l9.5-9.5l-9.5-9.5l-9.5,9.5L1319.4,586.9z"/>
		<polygon class="st12" points="1782.5,388.6 1808.3,373.7 1834.1,388.6 1834.1,418.4 1808.3,433.4 1782.5,418.4 		"/>
		<path class="st8" d="M1694.9,252.5l-9.6,9.5l-9.6-9.5l9.5-9.6L1694.9,252.5z M1718.1,229.3l16.4,16.4l9.5-9.6l-25.9-26l-25.9,26
			l9.5,9.6L1718.1,229.3z M1750.9,242.9l-9.6,9.6l9.6,9.5l9.6-9.5L1750.9,242.9z M1718.1,275.7l-16.4-16.4l-9.6,9.5l25.9,26l25.9-26
			l-9.5-9.5L1718.1,275.7z M1718.1,262l9.5-9.5l-9.5-9.6l-9.6,9.6L1718.1,262z"/>
		<g class="st6">
			<path class="st7" d="M154.5,324.2h-12v9.8h14v3h-17.6v-27.8h17.4v3h-13.8v9h12C154.5,321.3,154.5,324.2,154.5,324.2z"/>
			<path class="st7" d="M163.7,316.4l0.1,2.6c1.5-1.9,3.6-2.9,6.2-2.9c4.4,0,6.5,2.5,6.6,7.3v13.7H173v-13.7c0-1.5-0.4-2.6-1-3.3
				c-0.7-0.7-1.7-1.1-3.2-1.1c-1.1,0-2.2,0.3-3,1c-0.8,0.6-1.5,1.4-2.1,2.4v14.7h-3.5v-20.6L163.7,316.4L163.7,316.4z"/>
			<path class="st7" d="M186.7,311.5v5h3.9v2.8h-3.9v12.9c0,0.8,0.1,1.4,0.6,1.8c0.4,0.4,1,0.6,1.8,0.6c0.4,0,1-0.1,1.7-0.3v2.9
				c-1,0.3-1.8,0.4-2.8,0.4c-1.5,0-2.8-0.4-3.6-1.4s-1.2-2.4-1.2-4v-12.7h-3.7v-2.8h3.7v-5h3.6v-0.2H186.7z"/>
			<path class="st7" d="M203.3,337.5c-2.8,0-5.1-1-6.8-2.8c-1.8-1.8-2.6-4.3-2.6-7.3v-0.7c0-2.1,0.4-3.9,1.1-5.5
				c0.8-1.7,1.9-2.9,3.3-3.7c1.4-1,2.9-1.4,4.6-1.4c2.6,0,4.7,0.8,6.2,2.6s2.2,4.3,2.2,7.6v1.5h-14c0,2.1,0.7,3.7,1.8,5
				c1.1,1.2,2.6,1.9,4.3,1.9c1.2,0,2.4-0.3,3.2-0.8s1.7-1.2,2.2-2.1l2.2,1.7C209.4,336.1,206.7,337.5,203.3,337.5z M202.9,318.9
				c-1.4,0-2.6,0.6-3.6,1.5c-1,1-1.5,2.5-1.8,4.3h10.4v-0.3c-0.1-1.8-0.6-3.2-1.4-4.1C205.5,319.5,204.2,318.9,202.9,318.9z"/>
			<path class="st7" d="M225.4,319.6c-0.6-0.1-1.1-0.1-1.8-0.1c-2.4,0-3.9,1-4.7,2.9v14.7h-3.5v-20.6h3.5v2.4c1.1-1.8,2.8-2.8,5-2.8
				c0.7,0,1.2,0.1,1.5,0.3V319.6L225.4,319.6z"/>
			<path class="st7" d="M246,327c0,3.2-0.7,5.7-2.2,7.6c-1.4,1.9-3.3,2.9-5.8,2.9s-4.4-0.8-5.9-2.4v10h-3.5v-28.5h3.2l0.1,2.4
				c1.4-1.8,3.5-2.6,5.9-2.6c2.5,0,4.4,1,5.9,2.8c1.4,1.9,2.2,4.4,2.2,7.7L246,327L246,327z M242.6,326.5c0-2.4-0.6-4.1-1.5-5.5
				c-1-1.4-2.4-2.1-4-2.1c-2.1,0-3.7,1-4.8,2.9v9.8c1.1,1.9,2.6,2.8,4.8,2.8c1.7,0,3-0.7,4-2.1C242,331.2,242.6,329.3,242.6,326.5z"
				/>
			<path class="st7" d="M260.4,319.6c-0.6-0.1-1.1-0.1-1.8-0.1c-2.4,0-3.9,1-4.7,2.9v14.7h-3.5v-20.6h3.5v2.4c1.1-1.8,2.8-2.8,5-2.8
				c0.7,0,1.2,0.1,1.5,0.3L260.4,319.6L260.4,319.6z"/>
			<path class="st7" d="M263.7,311.1c0-0.6,0.1-1.1,0.6-1.4c0.4-0.4,0.8-0.6,1.5-0.6s1.2,0.1,1.5,0.6c0.4,0.4,0.6,0.8,0.6,1.4
				s-0.1,1.1-0.6,1.4c-0.4,0.4-0.8,0.6-1.5,0.6s-1.2-0.1-1.5-0.6C263.9,312,263.7,311.6,263.7,311.1z M267.6,337.1h-3.5v-20.6h3.5
				V337.1z"/>
			<path class="st7" d="M281.4,334.6c1.2,0,2.4-0.4,3.3-1.1c1-0.7,1.5-1.7,1.5-2.9h3.3c0,1.2-0.4,2.4-1.2,3.3c-0.8,1-1.8,1.9-3,2.5
				c-1.2,0.7-2.6,1-4,1c-2.8,0-5-1-6.6-2.8c-1.7-1.9-2.5-4.4-2.5-7.7v-0.4c0-2.1,0.4-3.7,1.1-5.4c0.7-1.7,1.8-2.8,3.2-3.6
				s3-1.2,4.8-1.2c2.4,0,4.3,0.7,5.8,2.1s2.4,3.2,2.5,5.4h-3.3c-0.1-1.4-0.6-2.5-1.5-3.3s-2.1-1.2-3.3-1.2c-1.8,0-3.2,0.7-4.1,1.9
				c-1,1.2-1.5,3.2-1.5,5.5v0.7c0,2.4,0.6,4.1,1.5,5.5C278.2,334,279.6,334.6,281.4,334.6z"/>
			<path class="st7" d="M302.2,337.5c-2.8,0-5.1-1-6.8-2.8c-1.8-1.8-2.6-4.3-2.6-7.3v-0.7c0-2.1,0.4-3.9,1.1-5.5
				c0.8-1.7,1.9-2.9,3.3-3.7c1.4-1,2.9-1.4,4.6-1.4c2.6,0,4.7,0.8,6.2,2.6c1.5,1.8,2.2,4.3,2.2,7.6v1.5h-14c0,2.1,0.7,3.7,1.8,5
				c1.1,1.2,2.6,1.9,4.3,1.9c1.2,0,2.4-0.3,3.2-0.8s1.7-1.2,2.2-2.1l2.2,1.7C308.3,336.1,305.6,337.5,302.2,337.5z M301.8,318.9
				c-1.4,0-2.6,0.6-3.6,1.5c-1,1-1.5,2.5-1.8,4.3h10.4v-0.3c-0.1-1.8-0.6-3.2-1.4-4.1C304.4,319.5,303.1,318.9,301.8,318.9z"/>
			<path class="st7" d="M324.7,339.4h-3l11.6-30.2h3L324.7,339.4z"/>
			<path class="st7" d="M350.3,337.1v-27.8h9.1c3,0,5.3,0.7,6.8,1.9c1.5,1.2,2.2,3,2.2,5.5c0,1.2-0.4,2.5-1.1,3.5s-1.8,1.8-3,2.4
				c1.5,0.4,2.6,1.2,3.6,2.4c1,1.1,1.2,2.6,1.2,4.1c0,2.5-0.8,4.4-2.5,5.8s-3.9,2.1-6.8,2.1h-9.5L350.3,337.1L350.3,337.1z
				 M353.9,321.1h5.5c1.7,0,2.9-0.4,3.9-1.2c1-0.8,1.4-1.9,1.4-3.3c0-1.5-0.4-2.6-1.4-3.3c-0.8-0.7-2.2-1.1-4-1.1h-5.4V321.1
				L353.9,321.1z M353.9,324.1v10h6.1c1.7,0,3-0.4,4-1.4c1-0.8,1.5-2.1,1.5-3.6c0-3.3-1.8-5-5.4-5H353.9z"/>
		</g>
		<g class="st6">
			<path class="st7" d="M383.9,319.6c-0.6-0.1-1.1-0.1-1.8-0.1c-2.4,0-3.9,1-4.7,2.9v14.7H374v-20.6h3.5v2.4c1.1-1.8,2.8-2.8,5-2.8
				c0.7,0,1.2,0.1,1.5,0.3L383.9,319.6L383.9,319.6z"/>
		</g>
		<g class="st6">
			<path class="st7" d="M399.1,337.1c-0.1-0.4-0.4-1.1-0.6-2.2c-1.7,1.7-3.6,2.5-5.8,2.5c-2.1,0-3.7-0.6-5-1.7
				c-1.2-1.1-1.9-2.6-1.9-4.4c0-2.2,0.8-3.9,2.5-5c1.7-1.2,3.9-1.8,6.9-1.8h3.5v-1.7c0-1.2-0.4-2.2-1.1-2.9
				c-0.7-0.7-1.8-1.1-3.3-1.1c-1.2,0-2.4,0.3-3.2,1c-0.8,0.7-1.2,1.4-1.2,2.4h-3.6c0-1,0.4-2.1,1.1-3c0.7-1,1.7-1.7,2.9-2.2
				s2.6-0.8,4.1-0.8c2.4,0,4.3,0.6,5.5,1.8c1.4,1.2,2.1,2.8,2.1,4.8v9.5c0,1.9,0.3,3.5,0.7,4.6v0.3L399.1,337.1L399.1,337.1z
				 M393.3,334.4c1.1,0,2.2-0.3,3.2-0.8c1-0.6,1.7-1.4,2.2-2.2v-4.3h-2.8c-4.3,0-6.5,1.2-6.5,3.7c0,1.1,0.4,1.9,1.1,2.6
				C391.2,334.1,392.2,334.4,393.3,334.4z"/>
			<path class="st7" d="M411,316.4l0.1,2.6c1.5-1.9,3.6-2.9,6.2-2.9c4.4,0,6.5,2.5,6.6,7.3v13.7h-3.5v-13.7c0-1.5-0.4-2.6-1-3.3
				c-0.7-0.7-1.7-1.1-3.2-1.1c-1.1,0-2.2,0.3-3,1c-0.8,0.6-1.5,1.4-2.1,2.4v14.7h-3.5v-20.6L411,316.4L411,316.4z"/>
			<path class="st7" d="M428.3,326.5c0-3.2,0.7-5.7,2.2-7.6s3.5-2.9,5.9-2.9s4.3,0.8,5.7,2.5v-10.8h3.5V337h-3.2l-0.1-2.2
				c-1.4,1.7-3.3,2.6-5.9,2.6c-2.4,0-4.3-1-5.8-2.9s-2.2-4.6-2.2-7.6v-0.4H428.3z M431.9,327c0,2.4,0.4,4.1,1.4,5.5s2.4,1.9,4,1.9
				c2.2,0,3.9-1,4.8-3V322c-1.1-1.9-2.6-2.9-4.8-2.9c-1.7,0-3,0.7-4,1.9C432.3,322.4,431.9,324.3,431.9,327z"/>
		</g>
		<g class="st6">
			<path class="st7" d="M201.6,382c-3.2-1-5.4-2.1-6.9-3.3c-1.4-1.4-2.1-2.9-2.1-4.8c0-2.2,0.8-4,2.6-5.4s4-2.1,6.8-2.1
				c1.9,0,3.6,0.4,5.1,1.1s2.6,1.8,3.5,3c0.8,1.2,1.2,2.8,1.2,4.3h-3.7c0-1.7-0.6-3-1.7-4c-1.1-1-2.6-1.4-4.6-1.4
				c-1.8,0-3.2,0.4-4.3,1.2c-1,0.8-1.5,1.9-1.5,3.3c0,1.1,0.4,2.1,1.4,2.9s2.6,1.5,4.8,2.2c2.4,0.7,4.1,1.4,5.4,2.2
				c1.2,0.8,2.2,1.7,2.9,2.8c0.7,1.1,1,2.2,1,3.7c0,2.2-0.8,4-2.6,5.4s-4.1,2.1-7.1,2.1c-1.9,0-3.7-0.4-5.4-1.1s-2.9-1.8-3.9-3
				c-0.8-1.2-1.4-2.8-1.4-4.3h3.7c0,1.7,0.6,3,1.8,4s2.9,1.5,5,1.5c1.9,0,3.5-0.4,4.4-1.2s1.5-1.8,1.5-3.2s-0.4-2.4-1.4-3.2
				C205.8,383.4,204.1,382.7,201.6,382z"/>
			<path class="st7" d="M233.4,384.2c0,3.2-0.7,5.7-2.2,7.6c-1.4,1.9-3.3,2.9-5.8,2.9s-4.4-0.8-5.9-2.4v10H216v-28.5h3.2l0.1,2.4
				c1.4-1.8,3.5-2.6,5.9-2.6c2.5,0,4.4,1,5.9,2.8c1.4,1.9,2.2,4.4,2.2,7.7L233.4,384.2L233.4,384.2z M230,383.8
				c0-2.4-0.6-4.1-1.5-5.5c-1-1.4-2.4-2.1-4-2.1c-2.1,0-3.7,1-4.8,2.9v9.8c1.1,1.9,2.6,2.8,4.8,2.8c1.7,0,3-0.7,4-2.1
				C229.4,388.5,230,386.4,230,383.8z"/>
			<path class="st7" d="M246.4,394.7c-2.8,0-5.1-1-6.8-2.8c-1.8-1.8-2.6-4.3-2.6-7.3v-0.7c0-2.1,0.4-3.9,1.1-5.5
				c0.8-1.7,1.9-2.9,3.3-3.7c1.4-1,2.9-1.4,4.6-1.4c2.6,0,4.7,0.8,6.2,2.6s2.2,4.3,2.2,7.6v1.5h-14c0,2.1,0.7,3.7,1.8,5
				c1.1,1.2,2.6,1.9,4.3,1.9c1.2,0,2.4-0.3,3.2-0.8s1.7-1.2,2.2-2.1l2.2,1.7C252.5,393.3,249.9,394.7,246.4,394.7z M246,376.2
				c-1.4,0-2.6,0.6-3.6,1.5c-1,1-1.5,2.5-1.8,4.3H251v-0.3c-0.1-1.8-0.6-3.2-1.4-4.1C248.6,376.7,247.5,376.2,246,376.2z"/>
			<path class="st7" d="M266.9,391.8c1.2,0,2.4-0.4,3.3-1.1c1-0.7,1.5-1.7,1.5-2.9h3.3c0,1.2-0.4,2.4-1.2,3.3c-0.8,1-1.8,1.9-3,2.5
				c-1.2,0.7-2.6,1-4,1c-2.8,0-5-1-6.6-2.8c-1.7-1.9-2.5-4.4-2.5-7.7v-0.6c0-2.1,0.4-3.7,1.1-5.4c0.7-1.7,1.8-2.8,3.2-3.6
				s3-1.2,4.8-1.2c2.4,0,4.3,0.7,5.8,2.1s2.4,3.2,2.5,5.4h-3.3c-0.1-1.4-0.6-2.5-1.5-3.3c-1-0.8-2.1-1.2-3.3-1.2
				c-1.8,0-3.2,0.7-4.1,1.9c-1,1.2-1.5,3.2-1.5,5.5v0.7c0,2.4,0.6,4.1,1.5,5.5C263.6,391.1,265.1,391.8,266.9,391.8z"/>
			<path class="st7" d="M279.1,368.2c0-0.6,0.1-1.1,0.6-1.4c0.4-0.4,0.8-0.6,1.5-0.6s1.2,0.1,1.5,0.6c0.4,0.4,0.6,0.8,0.6,1.4
				s-0.1,1.1-0.6,1.4c-0.4,0.4-0.8,0.6-1.5,0.6s-1.2-0.1-1.5-0.6C279.2,369.3,279.1,368.9,279.1,368.2z M282.8,394.3h-3.5v-20.6h3.5
				V394.3z"/>
			<path class="st7" d="M290.3,394.3v-17.8H287v-2.8h3.3v-2.1c0-2.2,0.6-3.9,1.8-5.1c1.2-1.2,2.9-1.8,5-1.8c0.8,0,1.7,0.1,2.5,0.3
				l-0.1,2.9c-0.6-0.1-1.2-0.1-1.9-0.1c-1.1,0-2.1,0.3-2.6,1c-0.7,0.7-1,1.7-1,2.9v2.2h4.4v2.8H294v17.8h-3.6L290.3,394.3
				L290.3,394.3z"/>
			<path class="st7" d="M302,368.2c0-0.6,0.1-1.1,0.6-1.4c0.4-0.4,0.8-0.6,1.5-0.6s1.2,0.1,1.5,0.6c0.4,0.4,0.6,0.8,0.6,1.4
				s-0.1,1.1-0.6,1.4c-0.4,0.4-0.8,0.6-1.5,0.6s-1.2-0.1-1.5-0.6C302.3,369.3,302,368.9,302,368.2z M305.9,394.3h-3.5v-20.6h3.5
				V394.3z"/>
			<path class="st7" d="M319.7,391.8c1.2,0,2.4-0.4,3.3-1.1c1-0.7,1.5-1.7,1.5-2.9h3.3c0,1.2-0.4,2.4-1.2,3.3s-1.8,1.9-3,2.5
				c-1.2,0.7-2.6,1-4,1c-2.8,0-5-1-6.6-2.8c-1.7-1.9-2.5-4.4-2.5-7.7v-0.6c0-2.1,0.4-3.7,1.1-5.4c0.7-1.7,1.8-2.8,3.2-3.6
				c1.4-0.8,3-1.2,4.8-1.2c2.4,0,4.3,0.7,5.8,2.1s2.4,3.2,2.5,5.4h-3.3c-0.1-1.4-0.6-2.5-1.5-3.3c-1-0.8-1.9-1.2-3.3-1.2
				c-1.8,0-3.2,0.7-4.1,1.9c-1,1.2-1.5,3.2-1.5,5.5v0.7c0,2.4,0.6,4.1,1.5,5.5C316.6,391.1,317.9,391.8,319.7,391.8z"/>
			<path class="st7" d="M362.6,385.5c-0.3,2.9-1.4,5.3-3.2,6.8c-1.8,1.7-4.3,2.4-7.3,2.4c-3.3,0-5.9-1.1-7.9-3.5
				c-1.9-2.4-2.9-5.5-2.9-9.4v-2.6c0-2.6,0.4-4.8,1.4-6.8c1-1.9,2.2-3.5,3.9-4.6c1.7-1.1,3.6-1.5,5.8-1.5c2.9,0,5.3,0.8,7.1,2.5
				c1.8,1.7,2.8,3.9,3,6.8h-3.7c-0.3-2.2-1-3.9-2.1-4.8c-1.1-1-2.5-1.5-4.4-1.5c-2.4,0-4.1,0.8-5.5,2.6c-1.4,1.7-1.9,4.1-1.9,7.3
				v2.6c0,3,0.7,5.4,1.9,7.2c1.2,1.8,3,2.6,5.3,2.6c2.1,0,3.6-0.4,4.7-1.4s1.8-2.5,2.2-4.8h3.7v0.1H362.6z"/>
			<path class="st7" d="M370.5,376.2c1.5-1.9,3.6-2.9,6.1-2.9c4.4,0,6.5,2.5,6.6,7.3v13.7h-3.5v-13.7c0-1.5-0.4-2.6-1-3.3
				c-0.7-0.7-1.7-1.1-3.2-1.1c-1.1,0-2.2,0.3-3,1c-0.8,0.6-1.5,1.4-2.1,2.4v14.7H367V365h3.5V376.2L370.5,376.2z"/>
			<path class="st7" d="M401.2,394.3c-0.1-0.4-0.4-1.1-0.6-2.2c-1.7,1.7-3.6,2.5-5.8,2.5c-2.1,0-3.7-0.6-5-1.7
				c-1.2-1.1-1.9-2.6-1.9-4.4c0-2.2,0.8-3.9,2.5-5c1.7-1.2,3.9-1.8,6.9-1.8h3.5V380c0-1.2-0.4-2.2-1.1-2.9c-0.7-0.7-1.8-1.1-3.3-1.1
				c-1.2,0-2.4,0.3-3.2,1c-0.8,0.7-1.2,1.4-1.2,2.4h-3.6c0-1,0.4-2.1,1.1-3c0.7-1,1.7-1.7,2.9-2.2c1.2-0.6,2.6-0.8,4.1-0.8
				c2.4,0,4.3,0.6,5.5,1.8c1.4,1.2,2.1,2.8,2.1,4.8v9.5c0,1.9,0.3,3.5,0.7,4.6v0.3L401.2,394.3L401.2,394.3z M395.4,391.7
				c1.1,0,2.2-0.3,3.2-0.8c1-0.6,1.7-1.4,2.2-2.2v-4.3H398c-4.3,0-6.5,1.2-6.5,3.7c0,1.1,0.4,1.9,1.1,2.6
				C393.3,391.4,394.3,391.7,395.4,391.7z"/>
			<path class="st7" d="M409.8,368.2c0-0.6,0.1-1.1,0.6-1.4c0.4-0.4,0.8-0.6,1.5-0.6s1.2,0.1,1.5,0.6c0.4,0.4,0.6,0.8,0.6,1.4
				s-0.1,1.1-0.6,1.4c-0.4,0.4-0.8,0.6-1.5,0.6s-1.2-0.1-1.5-0.6C409.9,369.3,409.8,368.9,409.8,368.2z M413.5,394.3H410v-20.6h3.5
				V394.3z"/>
			<path class="st7" d="M422.5,373.7l0.1,2.6c1.5-1.9,3.6-2.9,6.2-2.9c4.4,0,6.5,2.5,6.6,7.3v13.7H432v-13.7c0-1.5-0.4-2.6-1-3.3
				c-0.7-0.7-1.7-1.1-3.2-1.1c-1.1,0-2.2,0.3-3,1c-0.8,0.6-1.5,1.4-2.1,2.4v14.7h-3.5v-20.6L422.5,373.7L422.5,373.7z"/>
			<path class="st7" d="M452.8,388.9c0-1-0.4-1.7-1.1-2.2c-0.7-0.6-1.9-1-3.7-1.4c-1.8-0.4-3.2-0.8-4.3-1.4
				c-1.1-0.6-1.8-1.1-2.4-1.9c-0.6-0.7-0.7-1.7-0.7-2.6c0-1.7,0.7-3.2,2.2-4.3c1.4-1.1,3.3-1.8,5.5-1.8c2.4,0,4.3,0.6,5.7,1.8
				c1.5,1.2,2.2,2.8,2.2,4.6h-3.7c0-1-0.4-1.8-1.2-2.5c-0.8-0.7-1.8-1.1-3-1.1s-2.4,0.3-3,0.8c-0.7,0.6-1.1,1.2-1.1,2.2
				c0,0.8,0.3,1.5,1,1.9s1.9,0.8,3.6,1.2c1.8,0.4,3.2,0.8,4.3,1.4c1.1,0.6,1.9,1.2,2.5,1.9c0.6,0.8,0.8,1.7,0.8,2.8
				c0,1.8-0.7,3.3-2.2,4.4s-3.3,1.7-5.7,1.7c-1.7,0-3.2-0.3-4.4-0.8c-1.2-0.6-2.2-1.4-3-2.5s-1.1-2.2-1.1-3.5h3.5
				c0,1.2,0.6,2.1,1.4,2.8c0.8,0.7,2.1,1.1,3.5,1.1s2.4-0.3,3.2-0.8C452.1,390.2,452.8,389.7,452.8,388.9z"/>
		</g>
		<g class="st6">
			<path class="st7" d="M262.8,567.3l7.9-22.8h4l-10.2,27.8h-3.2L251,544.4h4L262.8,567.3z"/>
		</g>
		<g class="st6">
			<path class="st7" d="M285.6,572.5c-2.8,0-5.1-1-6.8-2.8c-1.8-1.8-2.6-4.3-2.6-7.3v-0.7c0-2.1,0.4-3.9,1.1-5.5
				c0.8-1.7,1.9-2.9,3.3-3.7c1.4-1,2.9-1.4,4.6-1.4c2.6,0,4.7,0.8,6.2,2.6s2.2,4.3,2.2,7.6v1.5h-14c0,2.1,0.7,3.7,1.8,5
				c1.1,1.2,2.6,1.9,4.3,1.9c1.2,0,2.4-0.3,3.2-0.8c0.8-0.6,1.7-1.2,2.2-2.1l2.2,1.7C291.6,571.3,289.1,572.5,285.6,572.5z
				 M285.1,554.1c-1.4,0-2.6,0.6-3.6,1.5c-1,1-1.5,2.5-1.8,4.3H290v-0.3c-0.1-1.8-0.6-3.2-1.4-4.1
				C287.7,554.5,286.6,554.1,285.1,554.1z"/>
		</g>
		<g class="st6">
			<path class="st7" d="M307.6,554.7c-0.6-0.1-1.1-0.1-1.8-0.1c-2.4,0-3.9,1-4.7,2.9v14.7h-3.5v-20.6h3.5v2.4c1.1-1.8,2.8-2.8,5-2.8
				c0.7,0,1.2,0.1,1.5,0.3V554.7L307.6,554.7z"/>
		</g>
		<g class="st6">
			<path class="st7" d="M316.6,546.5v5h3.9v2.8h-3.9v12.9c0,0.8,0.1,1.4,0.6,1.8c0.4,0.4,1,0.6,1.8,0.6c0.4,0,1-0.1,1.7-0.3v2.9
				c-1,0.3-1.8,0.4-2.8,0.4c-1.5,0-2.8-0.4-3.6-1.4c-0.8-1-1.2-2.4-1.2-4v-12.7h-3.7v-2.8h3.7v-5h3.6v-0.2H316.6z"/>
			<path class="st7" d="M324.6,546.1c0-0.6,0.1-1.1,0.6-1.4c0.4-0.4,0.8-0.6,1.5-0.6s1.2,0.1,1.5,0.6c0.4,0.4,0.6,0.8,0.6,1.4
				s-0.1,1.1-0.6,1.4c-0.4,0.4-0.8,0.6-1.5,0.6s-1.2-0.1-1.5-0.6C324.8,547.1,324.6,546.7,324.6,546.1z M328.3,572.2h-3.5v-20.6h3.5
				V572.2z"/>
			<path class="st7" d="M342.3,569.6c1.2,0,2.4-0.4,3.3-1.1c1-0.7,1.5-1.7,1.5-2.9h3.3c0,1.2-0.4,2.4-1.2,3.3s-1.8,1.9-3,2.5
				c-1.2,0.7-2.6,1-4,1c-2.8,0-5-1-6.6-2.8c-1.7-1.9-2.5-4.4-2.5-7.7v-0.6c0-2.1,0.4-3.7,1.1-5.4s1.8-2.8,3.2-3.6
				c1.4-0.8,3-1.2,4.8-1.2c2.4,0,4.3,0.7,5.8,2.1c1.5,1.4,2.4,3.2,2.5,5.4h-3.3c-0.1-1.4-0.6-2.5-1.5-3.3c-1-0.8-2.1-1.2-3.3-1.2
				c-1.8,0-3.2,0.7-4.1,1.9c-1,1.2-1.5,3.2-1.5,5.5v0.7c0,2.4,0.6,4.1,1.5,5.5C339.1,569.1,340.5,569.6,342.3,569.6z"/>
			<path class="st7" d="M367.2,572.2c-0.1-0.4-0.4-1.1-0.6-2.2c-1.7,1.7-3.6,2.5-5.8,2.5c-2.1,0-3.7-0.6-5-1.7
				c-1.2-1.1-1.9-2.6-1.9-4.4c0-2.2,0.8-3.9,2.5-5c1.7-1.2,3.9-1.8,6.9-1.8h3.5V558c0-1.2-0.4-2.2-1.1-2.9s-1.8-1.1-3.3-1.1
				c-1.2,0-2.4,0.3-3.2,1c-0.8,0.7-1.2,1.4-1.2,2.4h-3.6c0-1,0.4-2.1,1.1-3c0.7-1,1.7-1.7,2.9-2.2c1.2-0.6,2.6-0.8,4.1-0.8
				c2.4,0,4.3,0.6,5.5,1.8c1.4,1.2,2.1,2.8,2.1,4.8v9.5c0,1.9,0.3,3.5,0.7,4.6v0.3L367.2,572.2L367.2,572.2z M361.4,569.5
				c1.1,0,2.2-0.3,3.2-0.8c1-0.6,1.7-1.4,2.2-2.2v-4.3H364c-4.3,0-6.5,1.2-6.5,3.7c0,1.1,0.4,1.9,1.1,2.6
				C359.3,569.2,360.2,569.5,361.4,569.5z"/>
			<path class="st7" d="M379.5,572.2H376v-29.3h3.5V572.2z"/>
		</g>
		<g class="st6">
			<path class="st7" d="M135.5,617.1c-3.2-1-5.4-2.1-6.9-3.3c-1.4-1.4-2.1-2.9-2.1-4.8c0-2.2,0.8-4,2.6-5.4c1.8-1.4,4-2.1,6.8-2.1
				c1.9,0,3.6,0.4,5.1,1.1c1.5,0.7,2.6,1.8,3.5,3c0.8,1.2,1.2,2.8,1.2,4.3H142c0-1.7-0.6-3-1.7-4c-1.1-1-2.6-1.4-4.6-1.4
				c-1.8,0-3.2,0.4-4.3,1.2c-1,0.8-1.5,1.9-1.5,3.3c0,1.1,0.4,2.1,1.4,2.9c1,0.8,2.6,1.5,4.8,2.2c2.4,0.7,4.1,1.4,5.4,2.2
				c1.2,0.8,2.2,1.7,2.9,2.8s1,2.2,1,3.7c0,2.2-0.8,4-2.6,5.4s-4.1,2.1-7.1,2.1c-1.9,0-3.7-0.4-5.4-1.1c-1.7-0.7-2.9-1.8-3.9-3
				c-0.8-1.2-1.4-2.8-1.4-4.3h3.7c0,1.7,0.6,3,1.8,4s2.9,1.5,5,1.5c1.9,0,3.5-0.4,4.4-1.2c1-0.8,1.5-1.8,1.5-3.2s-0.4-2.4-1.4-3.2
				C139.8,618.6,138,617.7,135.5,617.1z"/>
			<path class="st7" d="M167.4,619.4c0,3.2-0.7,5.7-2.2,7.6c-1.4,1.9-3.3,2.9-5.8,2.9s-4.4-0.8-5.9-2.4v10H150V609h3.2l0.1,2.4
				c1.4-1.8,3.5-2.6,5.9-2.6c2.5,0,4.4,1,5.9,2.8c1.4,1.9,2.2,4.4,2.2,7.7C167.4,619.3,167.4,619.4,167.4,619.4z M163.9,619
				c0-2.4-0.6-4.1-1.5-5.5c-1-1.4-2.4-2.1-4-2.1c-2.1,0-3.7,1-4.8,2.9v9.8c1.1,1.9,2.6,2.8,4.8,2.8c1.7,0,3-0.7,4-2.1
				C163.3,623.6,163.9,621.6,163.9,619z"/>
			<path class="st7" d="M180.5,629.8c-2.8,0-5.1-1-6.8-2.8c-1.8-1.8-2.6-4.3-2.6-7.3V619c0-2.1,0.4-3.9,1.1-5.5
				c0.8-1.7,1.9-2.9,3.3-3.7c1.4-1,2.9-1.4,4.6-1.4c2.6,0,4.7,0.8,6.2,2.6s2.2,4.3,2.2,7.6v1.5h-14c0,2.1,0.7,3.7,1.8,5
				c1.1,1.2,2.6,1.9,4.3,1.9c1.2,0,2.4-0.3,3.2-0.8s1.7-1.2,2.2-2.1l2.2,1.7C186.4,628.5,184,629.8,180.5,629.8z M179.9,611.4
				c-1.4,0-2.6,0.6-3.6,1.5c-1,1-1.5,2.5-1.8,4.3h10.4v-0.3c-0.1-1.8-0.6-3.2-1.4-4.1C182.7,611.8,181.5,611.4,179.9,611.4z"/>
			<path class="st7" d="M200.8,626.9c1.2,0,2.4-0.4,3.3-1.1c1-0.7,1.5-1.7,1.5-2.9h3.3c0,1.2-0.4,2.4-1.2,3.3c-0.8,1-1.8,1.9-3,2.5
				c-1.2,0.7-2.6,1-4,1c-2.8,0-5-1-6.6-2.8c-1.7-1.9-2.5-4.4-2.5-7.7v-0.6c0-2.1,0.4-3.7,1.1-5.4s1.8-2.8,3.2-3.6s3-1.2,4.8-1.2
				c2.4,0,4.3,0.7,5.8,2.1c1.5,1.4,2.4,3.2,2.5,5.4h-3.3c-0.1-1.4-0.6-2.5-1.5-3.3c-1-0.8-1.9-1.1-3.3-1.1c-1.8,0-3.2,0.7-4.1,1.9
				c-1,1.2-1.5,3.2-1.5,5.5v0.7c0,2.4,0.6,4.1,1.5,5.5C197.6,626.3,199,626.9,200.8,626.9z"/>
			<path class="st7" d="M213,603.4c0-0.6,0.1-1.1,0.6-1.4c0.4-0.4,0.8-0.6,1.5-0.6s1.2,0.1,1.5,0.6c0.4,0.4,0.6,0.8,0.6,1.4
				c0,0.6-0.1,1.1-0.6,1.4c-0.4,0.4-0.8,0.6-1.5,0.6s-1.2-0.1-1.5-0.6C213.1,604.3,213,603.9,213,603.4z M216.9,629.4h-3.6v-20.6
				h3.5v20.6H216.9z"/>
			<path class="st7" d="M224.2,629.4v-17.8h-3.3v-2.8h3.3v-2.1c0-2.2,0.6-3.9,1.8-5.1c1.2-1.2,2.9-1.8,5-1.8c0.8,0,1.7,0.1,2.5,0.3
				l-0.1,2.9c-0.6-0.1-1.2-0.1-1.9-0.1c-1.1,0-2.1,0.3-2.6,1c-0.7,0.7-1,1.7-1,2.9v2.2h4.4v2.8h-4.4v17.7h-3.7V629.4z"/>
			<path class="st7" d="M236.1,603.4c0-0.6,0.1-1.1,0.6-1.4c0.4-0.4,0.8-0.6,1.5-0.6s1.2,0.1,1.5,0.6c0.4,0.4,0.6,0.8,0.6,1.4
				c0,0.6-0.1,1.1-0.6,1.4c-0.4,0.4-0.8,0.6-1.5,0.6s-1.2-0.1-1.5-0.6C236.2,604.3,236.1,603.9,236.1,603.4z M239.8,629.4h-3.5
				v-20.6h3.5V629.4z"/>
			<path class="st7" d="M253.8,626.9c1.2,0,2.4-0.4,3.3-1.1c1-0.7,1.5-1.7,1.5-2.9h3.3c0,1.2-0.4,2.4-1.2,3.3c-0.8,1-1.8,1.9-3,2.5
				c-1.2,0.7-2.6,1-4,1c-2.8,0-5-1-6.6-2.8c-1.7-1.9-2.5-4.4-2.5-7.7v-0.6c0-2.1,0.4-3.7,1.1-5.4s1.8-2.8,3.2-3.6s3-1.2,4.8-1.2
				c2.4,0,4.3,0.7,5.8,2.1c1.5,1.4,2.4,3.2,2.5,5.4h-3.3c-0.1-1.4-0.6-2.5-1.5-3.3c-1-0.8-2.1-1.2-3.3-1.2c-1.8,0-3.2,0.7-4.1,1.9
				s-1.5,3.2-1.5,5.5v0.7c0,2.4,0.6,4.1,1.5,5.5C250.5,626.3,252,626.9,253.8,626.9z"/>
			<path class="st7" d="M296.5,620.7c-0.3,2.9-1.4,5.3-3.2,6.8c-1.8,1.7-4.3,2.4-7.3,2.4c-3.3,0-5.9-1.1-7.9-3.5
				c-1.9-2.4-2.9-5.5-2.9-9.4v-2.8c0-2.6,0.4-4.8,1.4-6.8c1-1.9,2.2-3.5,3.9-4.6c1.7-1.1,3.6-1.5,5.8-1.5c2.9,0,5.3,0.8,7.1,2.5
				c1.8,1.7,2.8,3.9,3,6.8h-3.7c-0.3-2.2-1-3.9-2.1-4.8s-2.5-1.5-4.4-1.5c-2.4,0-4.1,0.8-5.5,2.6c-1.4,1.7-1.9,4.1-1.9,7.3v2.6
				c0,3,0.7,5.4,1.9,7.2c1.2,1.8,3,2.6,5.3,2.6c2.1,0,3.6-0.4,4.7-1.4s1.8-2.5,2.2-4.8h3.7v0.3H296.5z"/>
			<path class="st7" d="M304.6,611.2c1.5-1.9,3.6-2.9,6.1-2.9c4.4,0,6.5,2.5,6.6,7.3v13.7h-3.5v-13.7c0-1.5-0.4-2.6-1-3.3
				c-0.7-0.7-1.7-1.1-3.2-1.1c-1.1,0-2.2,0.3-3,1c-0.8,0.6-1.5,1.4-2.1,2.4v14.8H301V600h3.5v11.2H304.6z"/>
			<path class="st7" d="M335.3,629.4c-0.1-0.4-0.4-1.1-0.6-2.2c-1.7,1.7-3.6,2.5-5.8,2.5c-2.1,0-3.7-0.6-5-1.7s-1.9-2.6-1.9-4.4
				c0-2.2,0.8-3.9,2.5-5c1.7-1.2,3.9-1.8,6.9-1.8h3.5v-1.7c0-1.2-0.4-2.2-1.1-2.9s-1.8-1.1-3.3-1.1c-1.2,0-2.4,0.3-3.2,1
				c-0.8,0.7-1.2,1.4-1.2,2.4h-3.6c0-1,0.4-2.1,1.1-3c0.7-1,1.7-1.7,2.9-2.2c1.2-0.6,2.6-0.8,4.1-0.8c2.4,0,4.3,0.6,5.5,1.8
				c1.4,1.2,2.1,2.8,2.1,4.8v9.5c0,1.9,0.3,3.5,0.7,4.6v0.3L335.3,629.4L335.3,629.4z M329.3,626.7c1.1,0,2.2-0.3,3.2-0.8
				c1-0.6,1.7-1.4,2.2-2.2v-4.3h-2.8c-4.3,0-6.5,1.2-6.5,3.7c0,1.1,0.4,1.9,1.1,2.6C327.2,626.5,328.2,626.7,329.3,626.7z"/>
			<path class="st7" d="M343.7,603.4c0-0.6,0.1-1.1,0.6-1.4c0.4-0.4,0.8-0.6,1.5-0.6s1.2,0.1,1.5,0.6c0.4,0.4,0.6,0.8,0.6,1.4
				c0,0.6-0.1,1.1-0.6,1.4c-0.4,0.4-0.8,0.6-1.5,0.6s-1.2-0.1-1.5-0.6C343.8,604.3,343.7,603.9,343.7,603.4z M347.6,629.4h-3.5
				v-20.6h3.5V629.4z"/>
			<path class="st7" d="M356.6,608.8l0.1,2.6c1.5-1.9,3.6-2.9,6.2-2.9c4.4,0,6.5,2.5,6.6,7.3v13.7H366v-13.7c0-1.5-0.4-2.6-1-3.3
				c-0.7-0.7-1.7-1.1-3.2-1.1c-1.1,0-2.2,0.3-3,1c-0.8,0.6-1.5,1.4-2.1,2.4v14.7h-3.5v-20.6h3.4V608.8z"/>
			<path class="st7" d="M386.7,624c0-1-0.4-1.7-1.1-2.2c-0.7-0.6-1.9-1-3.7-1.4c-1.8-0.4-3.2-0.8-4.3-1.4c-1.1-0.6-1.8-1.1-2.4-1.9
				c-0.6-0.7-0.7-1.7-0.7-2.6c0-1.7,0.7-3.2,2.2-4.3c1.4-1.1,3.3-1.8,5.5-1.8c2.4,0,4.3,0.6,5.7,1.8c1.5,1.2,2.2,2.8,2.2,4.6h-3.6
				c0-1-0.4-1.8-1.2-2.5c-0.8-0.7-1.8-1.1-3-1.1s-2.4,0.3-3,0.8c-0.7,0.6-1.1,1.2-1.1,2.2c0,0.8,0.3,1.5,1,1.9s1.9,0.8,3.6,1.2
				c1.8,0.4,3.2,0.8,4.3,1.4c1.1,0.6,1.9,1.2,2.5,1.9c0.6,0.8,0.8,1.7,0.8,2.8c0,1.8-0.7,3.3-2.2,4.4c-1.5,1.1-3.3,1.7-5.7,1.7
				c-1.7,0-3.2-0.3-4.4-0.8c-1.2-0.6-2.2-1.4-3-2.5s-1.1-2.2-1.1-3.5h3.5c0,1.2,0.6,2.1,1.4,2.8s2.1,1.1,3.5,1.1s2.4-0.3,3.2-0.8
				C386.2,625.2,386.7,624.8,386.7,624z"/>
		</g>
		<g class="st6">
			<path class="st13" d="M0,675.4c0-2.9,0.4-5.7,1.1-8.3c0.8-2.6,1.9-5,3.5-7.2c1.5-2.2,3-3.7,4.7-4.6l0.7,2.4
				c-1.8,1.4-3.3,3.6-4.6,6.5c-1.2,2.9-1.8,6.2-1.9,9.8v1.7c0,4.8,0.8,9.1,2.6,12.7c1.1,2.2,2.4,3.9,3.9,5.1l-0.7,2.2
				c-1.7-1-3.3-2.5-4.8-4.7C1.5,686.6,0,681.4,0,675.4z"/>
		</g>
		<g class="st6">
			<path class="st13" d="M17.7,675.8v10.9h-3.6V659h10.2c3,0,5.4,0.8,7.2,2.4c1.7,1.5,2.6,3.6,2.6,6.2c0,2.6-0.8,4.7-2.5,6.2
				s-4.1,2.2-7.2,2.2h-6.8v-0.2H17.7z M17.7,672.8h6.6c1.9,0,3.5-0.4,4.6-1.4s1.5-2.2,1.5-4c0-1.7-0.6-3-1.5-4c-1-1-2.5-1.5-4.3-1.5
				h-6.8v10.9H17.7z"/>
		</g>
		<g class="st6">
			<path class="st13" d="M50.6,686.6c-0.1-0.4-0.4-1.1-0.6-2.2c-1.7,1.7-3.6,2.5-5.8,2.5c-2.1,0-3.7-0.6-5-1.7
				c-1.2-1.1-1.9-2.6-1.9-4.4c0-2.2,0.8-3.9,2.5-5c1.7-1.2,3.9-1.8,6.9-1.8H50v-1.7c0-1.2-0.4-2.2-1.1-2.9c-0.7-0.7-1.8-1.1-3.3-1.1
				c-1.2,0-2.4,0.3-3.2,1s-1.2,1.4-1.2,2.4h-3.6c0-1,0.4-2.1,1.1-3c0.7-1,1.7-1.7,2.9-2.2c1.2-0.6,2.6-0.8,4.1-0.8
				c2.4,0,4.3,0.6,5.5,1.8c1.4,1.2,2.1,2.8,2.1,4.8v9.5c0,1.9,0.3,3.5,0.7,4.6v0.3L50.6,686.6L50.6,686.6z M44.8,684
				c1.1,0,2.2-0.3,3.2-0.8c1-0.6,1.7-1.4,2.2-2.2v-4.3h-2.8c-4.3,0-6.5,1.2-6.5,3.7c0,1.1,0.4,1.9,1.1,2.6
				C42.7,683.7,43.7,684,44.8,684z"/>
		</g>
		<g class="st6">
			<path class="st13" d="M65.6,681.5l4.8-15.5h3.7l-8.3,23.8c-1.2,3.5-3.3,5.1-6.1,5.1H59l-1.4-0.3v-2.9l1,0.1
				c1.2,0,2.1-0.3,2.8-0.7s1.2-1.4,1.7-2.6l0.8-2.1l-7.3-20.3h3.9L65.6,681.5z"/>
			<path class="st13" d="M80.6,666l0.1,2.4c1.5-1.8,3.6-2.6,6.1-2.6c2.9,0,4.8,1.1,5.9,3.3c0.7-1,1.5-1.8,2.6-2.4s2.4-1,3.9-1
				c4.6,0,6.8,2.4,6.9,7.2v13.8h-3.5v-13.6c0-1.5-0.3-2.6-1-3.3s-1.8-1.1-3.5-1.1c-1.2,0-2.4,0.4-3.3,1.1c-0.8,0.8-1.4,1.8-1.5,3.2
				v13.7h-3.6v-13.6c0-3-1.5-4.6-4.4-4.6c-2.4,0-3.9,1-4.7,2.9v15.1h-3.5V666H80.6z"/>
			<path class="st13" d="M120.1,687c-2.8,0-5.1-1-6.8-2.8c-1.8-1.8-2.6-4.3-2.6-7.3v-0.7c0-2.1,0.4-3.9,1.1-5.5
				c0.8-1.7,1.9-2.9,3.3-3.7c1.4-1,2.9-1.4,4.6-1.4c2.6,0,4.7,0.8,6.2,2.6s2.2,4.3,2.2,7.6v1.5h-13.8c0,2.1,0.7,3.7,1.8,5
				c1.1,1.2,2.6,1.9,4.3,1.9c1.2,0,2.4-0.3,3.2-0.8c0.8-0.6,1.7-1.2,2.2-2.1l2.2,1.7C126.1,685.7,123.5,687,120.1,687z M119.6,668.5
				c-1.4,0-2.6,0.6-3.6,1.5c-1,1-1.5,2.5-1.8,4.3h10.4V674c-0.1-1.8-0.6-3.2-1.4-4.1C122.3,669.1,121.2,668.5,119.6,668.5z"/>
			<path class="st13" d="M135.5,666l0.1,2.6c1.5-1.9,3.6-2.9,6.2-2.9c4.4,0,6.5,2.5,6.6,7.3v13.7h-3.5V673c0-1.5-0.4-2.6-1-3.3
				c-0.7-0.7-1.7-1.1-3.2-1.1c-1.1,0-2.2,0.3-3,1c-0.8,0.6-1.5,1.4-2.1,2.4v14.7h-3.5V666H135.5z"/>
			<path class="st13" d="M158.5,661v5h3.9v2.8h-3.9v12.9c0,0.8,0.1,1.4,0.6,1.8s1,0.6,1.8,0.6c0.4,0,1-0.1,1.7-0.3v2.9
				c-1,0.3-1.8,0.4-2.8,0.4c-1.5,0-2.8-0.4-3.6-1.4s-1.2-2.4-1.2-4V669h-3.7v-2.8h3.7v-5h3.6V661H158.5z"/>
			<path class="st13" d="M166.4,692.2l-1.9-1.4c1.2-1.7,1.8-3.3,1.9-5.1v-3.2h3.5v2.8c0,1.2-0.3,2.6-1,3.9
				C168.2,690.4,167.4,691.5,166.4,692.2z"/>
			<path class="st13" d="M188.4,686.6h-3.6v-27.8h3.6V686.6z"/>
			<path class="st13" d="M193.6,676.3c0-3.2,0.7-5.7,2.2-7.6c1.5-1.9,3.5-2.9,5.9-2.9s4.3,0.8,5.7,2.5v-10.8h3.5v29.3h-3.2l-0.1-2.2
				c-1.4,1.7-3.3,2.6-5.9,2.6c-2.4,0-4.3-1-5.8-2.9s-2.2-4.6-2.2-7.6L193.6,676.3L193.6,676.3z M197.1,676.5c0,2.4,0.4,4.1,1.4,5.5
				s2.4,1.9,4,1.9c2.2,0,3.9-1,4.8-3v-9.4c-1.1-1.9-2.6-2.9-4.8-2.9c-1.7,0-3,0.7-4,1.9C197.6,672,197.1,673.9,197.1,676.5z"/>
			<path class="st13" d="M225,687c-2.8,0-5.1-1-6.8-2.8c-1.8-1.8-2.6-4.3-2.6-7.3v-0.7c0-2.1,0.4-3.9,1.1-5.5
				c0.8-1.7,1.9-2.9,3.3-3.7c1.4-1,2.9-1.4,4.6-1.4c2.6,0,4.7,0.8,6.2,2.6s2.2,4.3,2.2,7.6v1.5h-14c0,2.1,0.7,3.7,1.8,5
				c1.1,1.2,2.6,1.9,4.3,1.9c1.2,0,2.4-0.3,3.2-0.8c0.8-0.6,1.7-1.2,2.2-2.1l2.2,1.7C231.1,685.7,228.5,687,225,687z M224.6,668.5
				c-1.4,0-2.6,0.6-3.6,1.5c-1,1-1.5,2.5-1.8,4.3h10.4V674c-0.1-1.8-0.6-3.2-1.4-4.1C227.2,669.1,226,668.5,224.6,668.5z"/>
			<path class="st13" d="M240.5,666l0.1,2.6c1.5-1.9,3.6-2.9,6.2-2.9c4.4,0,6.5,2.5,6.6,7.3v13.7h-3.5V673c0-1.5-0.4-2.6-1-3.3
				c-0.7-0.7-1.7-1.1-3.2-1.1c-1.1,0-2.2,0.3-3,1c-0.8,0.6-1.5,1.4-2.1,2.4v14.7h-3.5V666H240.5z"/>
			<path class="st13" d="M263.5,661v5h3.9v2.8h-3.9v12.9c0,0.8,0.1,1.4,0.6,1.8c0.4,0.4,1,0.6,1.8,0.6c0.4,0,1-0.1,1.7-0.3v2.9
				c-1,0.3-1.8,0.4-2.8,0.4c-1.5,0-2.8-0.4-3.6-1.4s-1.2-2.4-1.2-4V669h-3.7v-2.8h3.7v-5h3.6V661H263.5z"/>
			<path class="st13" d="M271.5,660.6c0-0.6,0.1-1.1,0.6-1.4c0.4-0.4,0.8-0.6,1.5-0.6s1.2,0.1,1.5,0.6c0.4,0.4,0.6,0.8,0.6,1.4
				s-0.1,1.1-0.6,1.4c-0.4,0.4-0.8,0.6-1.5,0.6s-1.2-0.1-1.5-0.6C271.6,661.6,271.5,661.2,271.5,660.6z M275.2,686.6h-3.5V666h3.5
				V686.6z"/>
			<path class="st13" d="M285.7,661v5h3.9v2.8h-3.9v12.9c0,0.8,0.1,1.4,0.6,1.8s1,0.6,1.8,0.6c0.4,0,1-0.1,1.7-0.3v2.9
				c-1,0.3-1.8,0.4-2.8,0.4c-1.5,0-2.8-0.4-3.6-1.4s-1.2-2.4-1.2-4V669h-3.7v-2.8h3.7v-5h3.6V661H285.7z"/>
		</g>
		<g class="st6">
			<path class="st13" d="M300.4,681.5l4.8-15.5h3.7l-8.3,23.8c-1.2,3.5-3.3,5.1-6.1,5.1h-0.7l-1.4-0.3v-2.9l1,0.1
				c1.2,0,2.1-0.3,2.8-0.7c0.7-0.4,1.2-1.4,1.7-2.6l0.8-2.1l-7.3-20.3h3.9L300.4,681.5z"/>
		</g>
		<g class="st6">
			<path class="st13" d="M310,692.2l-1.9-1.4c1.2-1.7,1.8-3.3,1.9-5.1v-3.2h3.5v2.8c0,1.2-0.3,2.6-1,3.9
				C311.7,690.4,310.9,691.5,310,692.2z"/>
			<path class="st13" d="M336,687c-2.8,0-5.1-1-6.8-2.8c-1.8-1.8-2.6-4.3-2.6-7.3v-0.7c0-2.1,0.4-3.9,1.1-5.5
				c0.8-1.7,1.9-2.9,3.3-3.7c1.4-1,2.9-1.4,4.6-1.4c2.6,0,4.7,0.8,6.2,2.6s2.2,4.3,2.2,7.6v1.5h-14c0,2.1,0.7,3.7,1.8,5
				c1.1,1.2,2.6,1.9,4.3,1.9c1.2,0,2.4-0.3,3.2-0.8c0.8-0.6,1.7-1.2,2.2-2.1l2.2,1.7C342,685.7,339.4,687,336,687z M335.5,668.5
				c-1.4,0-2.6,0.6-3.6,1.5c-1,1-1.5,2.5-1.8,4.3h10.4V674c-0.1-1.8-0.6-3.2-1.4-4.1C338.2,669.1,337.1,668.5,335.5,668.5z"/>
			<path class="st13" d="M352.8,661v5h3.9v2.8h-3.9v12.9c0,0.8,0.1,1.4,0.6,1.8s1,0.6,1.8,0.6c0.4,0,1-0.1,1.7-0.3v2.9
				c-1,0.3-1.8,0.4-2.8,0.4c-1.5,0-2.8-0.4-3.6-1.4s-1.2-2.4-1.2-4V669h-3.7v-2.8h3.7v-5h3.6V661H352.8z"/>
			<path class="st13" d="M369.1,684.1c1.2,0,2.4-0.4,3.3-1.1s1.5-1.7,1.5-2.9h3.3c0,1.2-0.4,2.4-1.2,3.3s-1.8,1.9-3,2.5
				c-1.2,0.7-2.6,1-4,1c-2.8,0-5-1-6.6-2.8c-1.7-1.9-2.5-4.4-2.5-7.7v-0.6c0-2.1,0.4-3.7,1.1-5.4s1.8-2.8,3.2-3.6s3-1.2,4.8-1.2
				c2.4,0,4.3,0.7,5.8,2.1c1.5,1.4,2.4,3.2,2.5,5.4H374c-0.1-1.4-0.6-2.5-1.5-3.3s-2.1-1.2-3.3-1.2c-1.8,0-3.2,0.7-4.1,1.9
				s-1.5,3.2-1.5,5.5v0.7c0,2.4,0.6,4.1,1.5,5.5C366,683.6,367.3,684.1,369.1,684.1z"/>
			<path class="st13" d="M389.5,675.6c0,2.8-0.4,5.5-1.1,8.2c-0.7,2.6-1.9,5-3.5,7.2c-1.5,2.2-3.2,3.7-4.8,4.7l-0.7-2.2
				c1.9-1.5,3.6-3.9,4.7-6.9c1.2-3.2,1.8-6.6,1.8-10.5v-0.6c0-2.6-0.3-5.1-0.8-7.5c-0.6-2.4-1.4-4.3-2.4-6.2c-1-1.8-2.1-3.2-3.3-4.3
				l0.7-2.2c1.7,1,3.3,2.5,4.8,4.7s2.6,4.6,3.5,7.2C389.1,669.8,389.5,672.7,389.5,675.6z"/>
		</g>
		<g class="st6">
			<path class="st7" d="M248.7,861.3c-1,1.4-2.2,2.4-3.9,3c-1.7,0.7-3.6,1-5.9,1c-2.2,0-4.3-0.6-6.1-1.7c-1.8-1.1-3-2.6-4-4.6
				c-1-1.9-1.4-4.3-1.5-6.8v-2.5c0-4.1,1-7.5,2.9-9.7c1.9-2.4,4.7-3.5,8.2-3.5c2.9,0,5.3,0.7,7.1,2.2s2.9,3.6,3.2,6.4H245
				c-0.7-3.7-2.9-5.5-6.5-5.5c-2.5,0-4.3,0.8-5.5,2.6c-1.2,1.7-1.9,4.1-1.9,7.5v2.2c0,3.2,0.7,5.5,2.1,7.5c1.4,1.8,3.3,2.8,5.8,2.8
				c1.4,0,2.6-0.1,3.6-0.4c1-0.3,1.9-0.8,2.5-1.5v-6.2h-6.4v-3h10.1L248.7,861.3L248.7,861.3z"/>
		</g>
		<g class="st6">
			<path class="st7" d="M253.3,854.5c0-2.1,0.4-3.9,1.2-5.4c0.8-1.7,1.9-2.9,3.3-3.7s3-1.4,4.8-1.4c2.8,0,5.1,1,6.8,2.9
				c1.8,1.9,2.6,4.6,2.6,7.7v0.3c0,2.1-0.4,3.9-1.1,5.4c-0.8,1.7-1.9,2.9-3.3,3.7s-3,1.4-5,1.4c-2.8,0-5.1-1-6.8-2.9
				c-1.8-1.9-2.6-4.6-2.6-7.7L253.3,854.5L253.3,854.5z M256.9,855c0,2.4,0.6,4.1,1.7,5.5s2.5,2.1,4.3,2.1s3.2-0.7,4.3-2.1
				c1.1-1.4,1.5-3.3,1.5-5.9c0-2.2-0.6-4.1-1.7-5.5s-2.5-2.1-4.3-2.1s-3.2,0.7-4.1,2.1C257.5,850.4,256.9,852.3,256.9,855z"/>
		</g>
		<g class="st6">
			<path class="st7" d="M283,860.2l5.1-15.9h3.6l-7.3,20.6h-2.6l-7.5-20.6h3.6L283,860.2z"/>
		</g>
		<g class="st6">
			<path class="st7" d="M303.5,865.3c-2.8,0-5.1-1-6.8-2.8c-1.8-1.8-2.6-4.3-2.6-7.3v-0.7c0-2.1,0.4-3.9,1.1-5.5
				c0.8-1.7,1.9-2.9,3.3-3.7c1.4-1,2.9-1.4,4.6-1.4c2.6,0,4.7,0.8,6.2,2.6s2.2,4.3,2.2,7.6v1.5h-14c0,2.1,0.7,3.7,1.8,5
				c1.1,1.2,2.6,1.9,4.3,1.9c1.2,0,2.4-0.3,3.2-0.8c0.8-0.6,1.7-1.2,2.2-2.1l2.2,1.7C309.5,864.1,307,865.3,303.5,865.3z M303,846.9
				c-1.4,0-2.6,0.6-3.6,1.5c-1,1-1.5,2.5-1.8,4.3H308v-0.3c-0.1-1.8-0.6-3.2-1.4-4.1C305.6,847.3,304.5,846.9,303,846.9z"/>
			<path class="st7" d="M325.5,847.5c-0.6-0.1-1.1-0.1-1.8-0.1c-2.4,0-3.9,1-4.7,2.9V865h-3.5v-20.6h3.5v2.4c1.1-1.8,2.8-2.8,5-2.8
				c0.7,0,1.2,0.1,1.5,0.3V847.5L325.5,847.5z"/>
			<path class="st7" d="M332.1,844.4l0.1,2.6c1.5-1.9,3.6-2.9,6.2-2.9c4.4,0,6.5,2.5,6.6,7.3v13.7h-3.5v-13.7c0-1.5-0.4-2.6-1-3.3
				c-0.7-0.7-1.7-1.1-3.2-1.1c-1.1,0-2.2,0.3-3,1c-0.8,0.6-1.5,1.4-2.1,2.4V865H329v-20.6H332.1z"/>
			<path class="st7" d="M363,865c-0.1-0.4-0.4-1.1-0.6-2.2c-1.7,1.7-3.6,2.5-5.8,2.5c-2.1,0-3.7-0.6-5-1.7s-1.9-2.6-1.9-4.4
				c0-2.2,0.8-3.9,2.5-5c1.7-1.2,3.9-1.8,6.9-1.8h3.5v-1.7c0-1.2-0.4-2.2-1.1-2.9s-1.8-1.1-3.3-1.1c-1.2,0-2.4,0.3-3.2,1
				c-0.8,0.7-1.2,1.4-1.2,2.4h-3.6c0-1,0.4-2.1,1.1-3c0.7-1,1.7-1.7,2.9-2.2c1.2-0.6,2.6-0.8,4.1-0.8c2.4,0,4.3,0.6,5.5,1.8
				c1.4,1.2,2.1,2.8,2.1,4.8v9.5c0,1.9,0.3,3.5,0.7,4.6v0.3L363,865L363,865z M357.2,862.3c1.1,0,2.2-0.3,3.2-0.8
				c1-0.6,1.7-1.4,2.2-2.2V855h-2.8c-4.3,0-6.5,1.2-6.5,3.7c0,1.1,0.4,1.9,1.1,2.6C355.1,862,356.1,862.3,357.2,862.3z"/>
			<path class="st7" d="M374.9,844.4l0.1,2.6c1.5-1.9,3.6-2.9,6.2-2.9c4.4,0,6.5,2.5,6.6,7.3v13.7h-3.5v-13.7c0-1.5-0.4-2.6-1-3.3
				c-0.7-0.7-1.7-1.1-3.2-1.1c-1.1,0-2.2,0.3-3,1c-0.8,0.6-1.5,1.4-2.1,2.4V865h-3.5v-20.6H374.9z"/>
			<path class="st7" d="M401.3,862.6c1.2,0,2.4-0.4,3.3-1.1c1-0.7,1.5-1.7,1.5-2.9h3.3c0,1.2-0.4,2.4-1.2,3.3s-1.8,1.9-3,2.5
				c-1.2,0.7-2.6,1-4,1c-2.8,0-5-1-6.6-2.8c-1.7-1.9-2.5-4.4-2.5-7.7v-0.6c0-2.1,0.4-3.7,1.1-5.4s1.8-2.8,3.2-3.6s3-1.2,4.8-1.2
				c2.4,0,4.3,0.7,5.8,2.1c1.5,1.4,2.4,3.2,2.5,5.4h-3.3c-0.1-1.4-0.6-2.5-1.5-3.3c-1-0.8-2.1-1.2-3.3-1.2c-1.8,0-3.2,0.7-4.1,1.9
				c-1,1.2-1.5,3.2-1.5,5.5v0.7c0,2.4,0.6,4.1,1.5,5.5C398.1,861.9,399.5,862.6,401.3,862.6z"/>
			<path class="st7" d="M422.1,865.3c-2.8,0-5.1-1-6.8-2.8c-1.8-1.8-2.6-4.3-2.6-7.3v-0.7c0-2.1,0.4-3.9,1.1-5.5
				c0.8-1.7,1.9-2.9,3.3-3.7c1.4-1,2.9-1.4,4.6-1.4c2.6,0,4.7,0.8,6.2,2.6s2.2,4.3,2.2,7.6v1.5h-14c0,2.1,0.7,3.7,1.8,5
				c1.1,1.2,2.6,1.9,4.3,1.9c1.2,0,2.4-0.3,3.2-0.8c0.8-0.6,1.7-1.2,2.2-2.1l2.2,1.7C428.1,864.1,425.5,865.3,422.1,865.3z
				 M421.6,846.9c-1.4,0-2.6,0.6-3.6,1.5c-1,1-1.5,2.5-1.8,4.3h10.4v-0.3c-0.1-1.8-0.6-3.2-1.4-4.1
				C424.3,847.3,423.2,846.9,421.6,846.9z"/>
		</g>
		<g class="st6">
			<path class="st7" d="M279.3,924.7h-3l11.6-30.2h3L279.3,924.7z"/>
			<path class="st7" d="M313.1,909.9c-3.2-1-5.4-2.1-6.9-3.3c-1.4-1.4-2.1-2.9-2.1-4.8c0-2.2,0.8-4,2.6-5.4c1.8-1.4,4-2.1,6.8-2.1
				c1.9,0,3.6,0.4,5.1,1.1c1.5,0.7,2.6,1.8,3.5,3s1.2,2.8,1.2,4.3h-3.7c0-1.7-0.6-3-1.7-4s-2.6-1.4-4.6-1.4c-1.8,0-3.2,0.4-4.3,1.2
				c-1,0.8-1.5,1.9-1.5,3.3c0,1.1,0.4,2.1,1.4,2.9c1,0.8,2.6,1.5,4.8,2.2c2.4,0.7,4.1,1.4,5.4,2.2s2.2,1.7,2.9,2.8
				c0.7,1.1,1,2.2,1,3.7c0,2.2-0.8,4-2.6,5.4c-1.8,1.4-4.1,2.1-7.1,2.1c-1.9,0-3.7-0.4-5.4-1.1c-1.7-0.7-2.9-1.8-3.9-3
				c-0.8-1.2-1.4-2.8-1.4-4.3h3.7c0,1.7,0.6,3,1.8,4s2.9,1.5,5,1.5c1.9,0,3.5-0.4,4.4-1.2c1-0.8,1.5-1.8,1.5-3.2s-0.4-2.4-1.4-3.2
				C317.4,911.4,315.6,910.6,313.1,909.9z"/>
			<path class="st7" d="M332.3,896.6v5h3.9v2.8h-3.9v12.9c0,0.8,0.1,1.4,0.6,1.8c0.4,0.4,1,0.6,1.8,0.6c0.4,0,1-0.1,1.7-0.3v2.9
				c-1,0.3-1.8,0.4-2.8,0.4c-1.5,0-2.8-0.4-3.6-1.4c-0.8-1-1.2-2.4-1.2-4v-12.7H325v-2.8h3.7v-5h3.6L332.3,896.6L332.3,896.6z"/>
			<path class="st7" d="M353,922.3c-0.1-0.4-0.4-1.1-0.6-2.2c-1.7,1.7-3.6,2.5-5.8,2.5c-2.1,0-3.7-0.6-5-1.7
				c-1.2-1.1-1.9-2.6-1.9-4.4c0-2.2,0.8-3.9,2.5-5c1.7-1.2,3.9-1.8,6.9-1.8h3.5V908c0-1.2-0.4-2.2-1.1-2.9s-1.8-1.1-3.3-1.1
				c-1.2,0-2.4,0.3-3.2,1c-0.8,0.7-1.2,1.4-1.2,2.4h-3.6c0-1,0.4-2.1,1.1-3c0.7-1,1.7-1.7,2.9-2.2c1.2-0.6,2.6-0.8,4.1-0.8
				c2.4,0,4.3,0.6,5.5,1.8c1.4,1.2,2.1,2.8,2.1,4.8v9.5c0,1.9,0.3,3.5,0.7,4.6v0.3L353,922.3L353,922.3z M347.2,919.5
				c1.1,0,2.2-0.3,3.2-0.8s1.7-1.4,2.2-2.2v-4.3h-2.8c-4.3,0-6.5,1.2-6.5,3.7c0,1.1,0.4,1.9,1.1,2.6
				C345.2,919.3,346,919.5,347.2,919.5z"/>
			<path class="st7" d="M367.3,912.8l-2.2,2.4v7.2h-3.5V893h3.5v17.7l1.9-2.2l6.4-6.8h4.3l-8,8.6l9,12h-4.1L367.3,912.8z"/>
			<path class="st7" d="M381.2,896.2c0-0.6,0.1-1.1,0.6-1.4c0.4-0.4,0.8-0.6,1.5-0.6s1.2,0.1,1.5,0.6c0.4,0.4,0.6,0.8,0.6,1.4
				s-0.1,1.1-0.6,1.4c-0.4,0.4-0.8,0.6-1.5,0.6s-1.2-0.1-1.5-0.6C381.5,897.3,381.2,896.7,381.2,896.2z M385.1,922.3h-3.5v-20.6h3.5
				V922.3z"/>
			<path class="st7" d="M394.1,901.7l0.1,2.6c1.5-1.9,3.6-2.9,6.2-2.9c4.4,0,6.5,2.5,6.6,7.3v13.7h-3.5v-13.7c0-1.5-0.4-2.6-1-3.3
				c-0.7-0.7-1.7-1.1-3.2-1.1c-1.1,0-2.2,0.3-3,1c-0.8,0.6-1.5,1.4-2.1,2.4v14.7h-3.5v-20.6h3.4V901.7z"/>
			<path class="st7" d="M411.4,911.8c0-3.2,0.7-5.8,2.2-7.6c1.5-1.9,3.5-2.9,5.9-2.9c2.5,0,4.4,0.8,5.9,2.6l0.1-2.4h3.2v20.2
				c0,2.6-0.8,4.7-2.4,6.4c-1.5,1.5-3.7,2.4-6.4,2.4c-1.5,0-2.9-0.3-4.4-1c-1.4-0.7-2.5-1.5-3.3-2.6l1.8-2.1
				c1.5,1.9,3.3,2.8,5.5,2.8c1.7,0,3-0.4,4-1.4s1.4-2.4,1.4-4v-1.8c-1.4,1.7-3.3,2.5-5.8,2.5c-2.4,0-4.4-1-5.8-2.9
				C412.2,917.7,411.4,915.1,411.4,911.8z M415,912.2c0,2.4,0.4,4.1,1.4,5.5s2.4,1.9,4,1.9c2.2,0,3.9-1,4.8-3v-9.4
				c-1.1-1.9-2.8-2.9-4.8-2.9c-1.7,0-3,0.7-4,1.9C415.6,907.6,415,909.6,415,912.2z"/>
		</g>
		<g class="st6">
			<path class="st7" d="M409.7,1097.3c-3.2-1-5.4-2.1-6.9-3.3c-1.4-1.4-2.1-2.9-2.1-4.8c0-2.2,0.8-4,2.6-5.4c1.8-1.4,4-2.1,6.8-2.1
				c1.9,0,3.6,0.4,5.1,1.1s2.6,1.8,3.5,3c0.8,1.2,1.2,2.8,1.2,4.3h-3.7c0-1.7-0.6-3-1.7-4s-2.6-1.4-4.6-1.4c-1.8,0-3.2,0.4-4.3,1.2
				c-1,0.8-1.5,1.9-1.5,3.3c0,1.1,0.4,2.1,1.4,2.9s2.6,1.5,4.8,2.2c2.4,0.7,4.1,1.4,5.4,2.2c1.2,0.8,2.2,1.7,2.9,2.8
				c0.7,1.1,1,2.2,1,3.7c0,2.2-0.8,4-2.6,5.4s-4.1,2.1-7.1,2.1c-1.9,0-3.7-0.4-5.4-1.1c-1.7-0.7-2.9-1.8-3.9-3
				c-0.8-1.2-1.4-2.8-1.4-4.3h3.7c0,1.7,0.6,3,1.8,4c1.2,1,2.9,1.5,5,1.5c1.9,0,3.5-0.4,4.4-1.2c1-0.8,1.5-1.8,1.5-3.2
				c0-1.4-0.4-2.4-1.4-3.2C414,1098.7,412.2,1098,409.7,1097.3z"/>
			<path class="st7" d="M475.2,1097.3c-3.2-1-5.4-2.1-6.9-3.3c-1.4-1.4-2.1-2.9-2.1-4.8c0-2.2,0.8-4,2.6-5.4c1.8-1.4,4-2.1,6.8-2.1
				c1.9,0,3.6,0.4,5.1,1.1s2.6,1.8,3.5,3c0.8,1.2,1.2,2.8,1.2,4.3h-3.7c0-1.7-0.6-3-1.7-4s-2.6-1.4-4.6-1.4c-1.8,0-3.2,0.4-4.3,1.2
				c-1,0.8-1.5,1.9-1.5,3.3c0,1.1,0.4,2.1,1.4,2.9s2.6,1.5,4.8,2.2c2.4,0.7,4.1,1.4,5.4,2.2c1.2,0.8,2.2,1.7,2.9,2.8
				c0.7,1.1,1,2.2,1,3.7c0,2.2-0.8,4-2.6,5.4s-4.1,2.1-7.1,2.1c-1.9,0-3.7-0.4-5.4-1.1c-1.7-0.7-2.9-1.8-3.9-3
				c-0.8-1.2-1.4-2.8-1.4-4.3h3.7c0,1.7,0.6,3,1.8,4c1.2,1,2.9,1.5,5,1.5c1.9,0,3.5-0.4,4.4-1.2c1-0.8,1.5-1.8,1.5-3.2
				c0-1.4-0.4-2.4-1.4-3.2C479.5,1098.7,477.7,1098,475.2,1097.3z"/>
			<path class="st7" d="M436.8,1109.6c-0.1-0.4-0.4-1.1-0.6-2.2c-1.7,1.7-3.6,2.5-5.8,2.5c-2.1,0-3.7-0.6-5-1.7
				c-1.2-1.1-1.9-2.6-1.9-4.4c0-2.2,0.8-3.9,2.5-5c1.7-1.2,3.9-1.8,6.9-1.8h3.5v-1.7c0-1.2-0.4-2.2-1.1-2.9
				c-0.7-0.7-1.8-1.1-3.3-1.1c-1.2,0-2.4,0.3-3.2,1c-0.8,0.7-1.2,1.4-1.2,2.4H424c0-1,0.4-2.1,1.1-3c0.7-1,1.7-1.7,2.9-2.2
				c1.2-0.6,2.6-0.8,4.1-0.8c2.4,0,4.3,0.6,5.5,1.8c1.4,1.2,2.1,2.8,2.1,4.8v9.5c0,1.9,0.3,3.5,0.7,4.6v0.3L436.8,1109.6
				L436.8,1109.6z M431,1107c1.1,0,2.2-0.3,3.2-0.8c1-0.6,1.7-1.4,2.2-2.2v-4.3h-2.8c-4.3,0-6.5,1.2-6.5,3.7c0,1.1,0.4,1.9,1.1,2.6
				C428.9,1106.7,429.9,1107,431,1107z"/>
			<path class="st7" d="M458.1,1109.6c-0.1-0.4-0.4-1.1-0.6-2.2c-1.7,1.7-3.6,2.5-5.8,2.5c-2.1,0-3.7-0.6-5-1.7
				c-1.2-1.1-1.9-2.6-1.9-4.4c0-2.2,0.8-3.9,2.5-5c1.7-1.2,3.9-1.8,6.9-1.8h3.5v-1.7c0-1.2-0.4-2.2-1.1-2.9
				c-0.7-0.7-1.8-1.1-3.3-1.1c-1.2,0-2.4,0.3-3.2,1c-0.8,0.7-1.2,1.4-1.2,2.4h-3.6c0-1,0.4-2.1,1.1-3c0.7-1,1.7-1.7,2.9-2.2
				c1.2-0.6,2.6-0.8,4.1-0.8c2.4,0,4.3,0.6,5.5,1.8c1.4,1.2,2.1,2.8,2.1,4.8v9.5c0,1.9,0.3,3.5,0.7,4.6v0.3L458.1,1109.6
				L458.1,1109.6z M452.3,1107c1.1,0,2.2-0.3,3.2-0.8c1-0.6,1.7-1.4,2.2-2.2v-4.3h-2.8c-4.3,0-6.5,1.2-6.5,3.7
				c0,1.1,0.4,1.9,1.1,2.6C450.2,1106.7,451,1107,452.3,1107z"/>
			<path class="st7" d="M497.1,1112h-3l11.6-30.2h3L497.1,1112z"/>
			<path class="st7" d="M522.7,1109.6v-27.8h9.1c3,0,5.3,0.7,6.8,1.9c1.5,1.2,2.2,3,2.2,5.5c0,1.2-0.4,2.5-1.1,3.5s-1.8,1.8-3,2.4
				c1.5,0.4,2.6,1.2,3.6,2.4s1.2,2.6,1.2,4.1c0,2.5-0.8,4.4-2.5,5.8s-3.9,2.1-6.8,2.1L522.7,1109.6L522.7,1109.6z M526.3,1093.7h5.5
				c1.7,0,2.9-0.4,3.9-1.2s1.4-1.9,1.4-3.3c0-1.5-0.4-2.6-1.4-3.3c-0.8-0.7-2.2-1.1-4-1.1h-5.4V1093.7z M526.3,1096.6v10h6.1
				c1.7,0,3-0.4,4-1.4c1-0.8,1.5-2.1,1.5-3.6c0-3.3-1.8-5-5.4-5H526.3z"/>
			<path class="st7" d="M550.9,1109.6h-3.6v-27.8h3.6V1109.6z"/>
		</g>
		<g class="st6">
			<path class="st7" d="M336.8,1139.1l9.1,22.7l9.1-22.7h4.7v27.8h-3.6v-10.8l0.3-11.6l-9.1,22.4h-2.8l-9.1-22.4l0.4,11.6v10.8h-3.6
				v-27.8H336.8z"/>
			<path class="st7" d="M378.3,1166.9c-0.1-0.4-0.4-1.1-0.6-2.2c-1.7,1.7-3.6,2.5-5.8,2.5c-2.1,0-3.7-0.6-5-1.7
				c-1.2-1.1-1.9-2.6-1.9-4.4c0-2.2,0.8-3.9,2.5-5c1.7-1.2,3.9-1.8,6.9-1.8h3.5v-1.7c0-1.2-0.4-2.2-1.1-2.9
				c-0.7-0.7-1.8-1.1-3.3-1.1c-1.2,0-2.4,0.3-3.2,1c-0.8,0.7-1.2,1.4-1.2,2.4h-3.6c0-1,0.4-2.1,1.1-3c0.7-1,1.7-1.7,2.9-2.2
				c1.2-0.6,2.6-0.8,4.1-0.8c2.4,0,4.3,0.6,5.5,1.8c1.4,1.2,2.1,2.8,2.1,4.8v9.5c0,1.9,0.3,3.5,0.7,4.6v0.3L378.3,1166.9
				L378.3,1166.9z M372.5,1164.3c1.1,0,2.2-0.3,3.2-0.8c1-0.6,1.7-1.4,2.2-2.2v-4.3h-2.8c-4.3,0-6.5,1.2-6.5,3.7
				c0,1.1,0.4,1.9,1.1,2.6C370.4,1164,371.4,1164.3,372.5,1164.3z"/>
			<path class="st7" d="M396.8,1149.5c-0.6-0.1-1.1-0.1-1.8-0.1c-2.4,0-3.9,1-4.7,2.9v14.7h-3.5v-20.6h3.5v2.4
				c1.1-1.8,2.8-2.8,5-2.8c0.7,0,1.2,0.1,1.5,0.3V1149.5L396.8,1149.5z"/>
		</g>
		<g class="st6">
			<path class="st7" d="M405.8,1157.4l-2.2,2.4v7.2h-3.5v-29.3h3.5v17.7l1.9-2.2l6.4-6.8h4.3l-8,8.6l9,12H413L405.8,1157.4z"/>
		</g>
		<g class="st6">
			<path class="st7" d="M427.9,1167.3c-2.8,0-5.1-1-6.8-2.8c-1.8-1.8-2.6-4.3-2.6-7.3v-0.7c0-2.1,0.4-3.9,1.1-5.5
				c0.8-1.7,1.9-2.9,3.3-3.7c1.4-1,2.9-1.4,4.6-1.4c2.6,0,4.7,0.8,6.2,2.6c1.5,1.8,2.2,4.3,2.2,7.6v1.5h-14c0,2.1,0.7,3.7,1.8,5
				c1.1,1.2,2.6,1.9,4.3,1.9c1.2,0,2.4-0.3,3.2-0.8c0.8-0.6,1.7-1.2,2.2-2.1l2.2,1.7C434,1165.9,431.4,1167.3,427.9,1167.3z
				 M427.5,1148.8c-1.4,0-2.6,0.6-3.6,1.5c-1,1-1.5,2.5-1.8,4.3h10.4v-0.3c-0.1-1.8-0.6-3.2-1.4-4.1
				C430.1,1149.3,429,1148.8,427.5,1148.8z"/>
			<path class="st7" d="M444.9,1141.3v5h3.9v2.8h-3.9v12.9c0,0.8,0.1,1.4,0.6,1.8c0.4,0.4,1,0.6,1.8,0.6c0.4,0,1-0.1,1.7-0.3v2.9
				c-1,0.3-1.8,0.4-2.8,0.4c-1.5,0-2.8-0.4-3.6-1.4c-0.8-1-1.2-2.4-1.2-4v-12.7h-3.7v-2.8h3.7v-5h3.6v-0.2H444.9z"/>
			<path class="st7" d="M470.3,1156.8c0,3.2-0.7,5.7-2.2,7.6c-1.4,1.9-3.3,2.9-5.8,2.9s-4.4-0.8-5.9-2.4v10h-3.5v-28.6h3.2l0.1,2.4
				c1.4-1.8,3.5-2.6,5.9-2.6c2.5,0,4.4,1,5.9,2.8c1.4,1.9,2.2,4.4,2.2,7.7L470.3,1156.8L470.3,1156.8z M466.8,1156.4
				c0-2.4-0.6-4.1-1.5-5.5c-1-1.4-2.4-2.1-4-2.1c-2.1,0-3.7,1-4.8,2.9v9.8c1.1,1.9,2.6,2.8,4.8,2.8c1.7,0,3-0.7,4-2.1
				C466.2,1161.1,466.8,1159,466.8,1156.4z"/>
			<path class="st7" d="M478.6,1166.9h-3.5v-29.3h3.5V1166.9z"/>
			<path class="st7" d="M496.9,1166.9c-0.1-0.4-0.4-1.1-0.6-2.2c-1.7,1.7-3.6,2.5-5.8,2.5c-2.1,0-3.7-0.6-5-1.7
				c-1.2-1.1-1.9-2.6-1.9-4.4c0-2.2,0.8-3.9,2.5-5c1.7-1.2,3.9-1.8,6.9-1.8h3.5v-1.7c0-1.2-0.4-2.2-1.1-2.9
				c-0.7-0.7-1.8-1.1-3.3-1.1c-1.2,0-2.4,0.3-3.2,1c-0.8,0.7-1.2,1.4-1.2,2.4h-3.6c0-1,0.4-2.1,1.1-3c0.7-1,1.7-1.7,2.9-2.2
				c1.2-0.6,2.6-0.8,4.1-0.8c2.4,0,4.3,0.6,5.5,1.8c1.4,1.2,2.1,2.8,2.1,4.8v9.5c0,1.9,0.3,3.5,0.7,4.6v0.3L496.9,1166.9
				L496.9,1166.9z M491.1,1164.3c1.1,0,2.2-0.3,3.2-0.8c1-0.6,1.7-1.4,2.2-2.2v-4.3h-2.8c-4.3,0-6.5,1.2-6.5,3.7
				c0,1.1,0.4,1.9,1.1,2.6C489.1,1164,489.9,1164.3,491.1,1164.3z"/>
			<path class="st7" d="M513.7,1164.4c1.2,0,2.4-0.4,3.3-1.1c1-0.7,1.5-1.7,1.5-2.9h3.3c0,1.2-0.4,2.4-1.2,3.3c-0.8,1-1.8,1.9-3,2.5
				c-1.2,0.7-2.6,1-4,1c-2.8,0-5-1-6.6-2.8c-1.7-1.9-2.5-4.4-2.5-7.7v-0.6c0-2.1,0.4-3.7,1.1-5.4c0.7-1.7,1.8-2.8,3.2-3.6
				s3-1.2,4.8-1.2c2.4,0,4.3,0.7,5.8,2.1s2.4,3.2,2.5,5.4h-3.3c-0.1-1.4-0.6-2.5-1.5-3.3c-1-0.8-2.1-1.2-3.3-1.2
				c-1.8,0-3.2,0.7-4.1,1.9c-1,1.2-1.5,3.2-1.5,5.5v0.7c0,2.4,0.6,4.1,1.5,5.5C510.5,1163.7,511.9,1164.4,513.7,1164.4z"/>
			<path class="st7" d="M534.4,1167.3c-2.8,0-5.1-1-6.8-2.8c-1.8-1.8-2.6-4.3-2.6-7.3v-0.7c0-2.1,0.4-3.9,1.1-5.5
				c0.8-1.7,1.9-2.9,3.3-3.7c1.4-1,2.9-1.4,4.6-1.4c2.6,0,4.7,0.8,6.2,2.6s2.2,4.3,2.2,7.6v1.5h-14c0,2.1,0.7,3.7,1.8,5
				c1.1,1.2,2.6,1.9,4.3,1.9c1.2,0,2.4-0.3,3.2-0.8c0.8-0.6,1.7-1.2,2.2-2.1l2.2,1.7C540.5,1165.9,537.9,1167.3,534.4,1167.3z
				 M534,1148.8c-1.4,0-2.6,0.6-3.6,1.5s-1.5,2.5-1.8,4.3H539v-0.3c-0.1-1.8-0.6-3.2-1.4-4.1C536.6,1149.3,535.5,1148.8,534,1148.8z
				"/>
			<path class="st7" d="M558.6,1161.5c0-1-0.4-1.7-1.1-2.2c-0.7-0.6-1.9-1-3.7-1.4s-3.2-0.8-4.3-1.4s-1.8-1.1-2.4-1.9
				c-0.6-0.7-0.7-1.7-0.7-2.6c0-1.7,0.7-3.2,2.2-4.3c1.4-1.1,3.3-1.8,5.5-1.8c2.4,0,4.3,0.6,5.7,1.8c1.5,1.2,2.2,2.8,2.2,4.6h-3.6
				c0-1-0.4-1.8-1.2-2.5s-1.8-1.1-3-1.1s-2.4,0.3-3,0.8c-0.7,0.6-1.1,1.2-1.1,2.2c0,0.8,0.3,1.5,1,1.9s1.9,0.8,3.6,1.2
				c1.8,0.4,3.2,0.8,4.3,1.4s1.9,1.2,2.5,1.9c0.6,0.8,0.8,1.7,0.8,2.8c0,1.8-0.7,3.3-2.2,4.4s-3.3,1.7-5.7,1.7
				c-1.7,0-3.2-0.3-4.4-0.8c-1.2-0.6-2.2-1.4-3-2.5s-1.1-2.2-1.1-3.5h3.5c0,1.2,0.6,2.1,1.4,2.8c0.8,0.7,2.1,1.1,3.5,1.1
				s2.4-0.3,3.2-0.8C558.1,1162.8,558.6,1162.3,558.6,1161.5z"/>
		</g>
		<g class="st6">
			<path class="st14" d="M742.6,661.7c0-0.8,0.1-1.5,0.4-2.2c0.2-0.7,0.6-1.3,1.1-1.8s1-0.9,1.7-1.2s1.5-0.4,2.4-0.4
				s1.7,0.1,2.5,0.4c0.7,0.3,1.3,0.7,1.8,1.2s0.8,1.1,1.1,1.8c0.2,0.7,0.4,1.4,0.4,2.2c0,0.7-0.1,1.4-0.4,2.1
				c-0.2,0.7-0.6,1.2-1.1,1.7s-1.1,0.9-1.8,1.1c-0.7,0.3-1.5,0.4-2.5,0.4s-1.7-0.1-2.4-0.4c-0.7-0.3-1.3-0.6-1.7-1.1
				s-0.8-1.1-1.1-1.7C742.7,663.2,742.6,662.5,742.6,661.7z"/>
			<path class="st14" d="M812.9,644.9c0,3.6-0.4,6.8-1.2,9.5c-0.8,2.8-2,5.1-3.6,7c-1.5,1.9-3.4,3.3-5.7,4.3c-2.2,1-4.8,1.5-7.7,1.5
				s-5.4-0.5-7.7-1.5s-4.2-2.4-5.7-4.3c-1.6-1.9-2.8-4.2-3.6-7s-1.3-5.9-1.3-9.5v-13.2c0-3.6,0.4-6.8,1.2-9.5c0.8-2.8,2-5.1,3.6-7
				s3.5-3.4,5.7-4.3c2.3-1,4.8-1.5,7.7-1.5s5.5,0.5,7.7,1.5c2.3,1,4.2,2.4,5.7,4.3c1.6,1.9,2.7,4.2,3.6,7c0.8,2.8,1.2,5.9,1.2,9.5
				L812.9,644.9L812.9,644.9z M783.6,643.4l21.9-16.8c-0.4-3.7-1.5-6.6-3.3-8.5s-4.3-2.9-7.6-2.9c-3.8,0-6.5,1.3-8.3,3.8
				s-2.7,6.2-2.7,11.1L783.6,643.4L783.6,643.4z M805.7,633.5l-21.9,16.7c0.4,3.6,1.6,6.4,3.4,8.3c1.8,1.9,4.3,2.9,7.5,2.9
				c3.8,0,6.6-1.3,8.3-3.9c1.8-2.6,2.6-6.3,2.6-11.1v-12.9H805.7z"/>
			<path class="st14" d="M848.2,666.4h-7.1v-47.1l-14.7,5.6v-6.5l21.3-8.2h0.6L848.2,666.4L848.2,666.4z"/>
		</g>
		<g class="st6">
			<path class="st14" d="M1538.8,663.6c0-0.8,0.1-1.5,0.4-2.2c0.2-0.7,0.6-1.3,1.1-1.8s1-0.9,1.7-1.2s1.5-0.4,2.4-0.4
				s1.7,0.1,2.5,0.4c0.7,0.3,1.3,0.7,1.8,1.2s0.8,1.1,1.1,1.8c0.2,0.7,0.4,1.4,0.4,2.2c0,0.7-0.1,1.4-0.4,2.1
				c-0.2,0.7-0.6,1.2-1.1,1.7s-1.1,0.9-1.8,1.1c-0.7,0.3-1.5,0.4-2.5,0.4s-1.7-0.1-2.4-0.4c-0.7-0.3-1.3-0.7-1.7-1.1
				c-0.5-0.5-0.8-1.1-1.1-1.7C1538.9,665.1,1538.8,664.4,1538.8,663.6z"/>
			<path class="st14" d="M1609.1,646.7c0,3.6-0.4,6.8-1.2,9.5c-0.8,2.8-2,5.1-3.6,7c-1.5,1.9-3.4,3.3-5.7,4.3
				c-2.2,1-4.8,1.5-7.7,1.5c-2.9,0-5.4-0.5-7.7-1.5s-4.2-2.4-5.7-4.3c-1.6-1.9-2.8-4.2-3.6-7c-0.8-2.8-1.3-5.9-1.3-9.5v-13.2
				c0-3.6,0.4-6.8,1.2-9.5c0.8-2.8,2-5.1,3.6-7s3.5-3.4,5.7-4.3c2.3-1,4.8-1.5,7.7-1.5c2.9,0,5.5,0.5,7.7,1.5c2.3,1,4.2,2.4,5.7,4.3
				c1.6,1.9,2.7,4.2,3.6,7c0.8,2.8,1.2,5.9,1.2,9.5v13.2H1609.1z M1579.9,645.3l21.9-16.8c-0.4-3.7-1.5-6.6-3.3-8.5
				s-4.3-2.9-7.6-2.9c-3.8,0-6.5,1.3-8.3,3.8s-2.7,6.2-2.7,11.1V645.3z M1601.9,635.3L1580,652c0.4,3.6,1.6,6.4,3.4,8.3
				c1.8,1.9,4.3,2.9,7.5,2.9c3.8,0,6.6-1.3,8.3-3.9c1.8-2.6,2.6-6.3,2.6-11.1L1601.9,635.3L1601.9,635.3z"/>
			<path class="st14" d="M1655.7,668.2h-36.8v-5.1l18.4-20.5c1.6-1.8,3-3.4,4.1-4.9c1.1-1.4,2-2.7,2.7-3.9s1.1-2.3,1.4-3.4
				c0.3-1.1,0.4-2.2,0.4-3.3c0-1.4-0.2-2.7-0.7-3.9s-1.1-2.3-2-3.2s-1.9-1.6-3.1-2.1s-2.6-0.8-4.2-0.8c-1.9,0-3.5,0.3-4.9,0.8
				s-2.5,1.3-3.4,2.3s-1.6,2.2-2,3.6c-0.5,1.4-0.7,3-0.7,4.7h-7.2c0-2.4,0.4-4.6,1.2-6.7c0.8-2.1,2-3.9,3.6-5.5s3.5-2.8,5.7-3.7
				c2.3-0.9,4.8-1.4,7.7-1.4c2.7,0,5,0.4,7.2,1.2c2.1,0.8,3.9,1.9,5.4,3.3c1.5,1.4,2.6,3,3.4,4.9s1.2,4,1.2,6.2c0,1.7-0.3,3.3-0.8,5
				s-1.3,3.2-2.3,4.8s-2.1,3.2-3.4,4.7s-2.6,3.1-4,4.7l-15.1,16.4h28.2L1655.7,668.2L1655.7,668.2z"/>
		</g>
		<path class="st8" d="M535.4,420c0,7.9-6.4,14.2-14.1,14.2c-7.7,0-14.2-6.4-14.2-14.1s6.4-14.2,14.1-14.2l0,0
			C529,405.8,535.4,412.2,535.4,420z"/>
		<path class="st8" d="M618,246.7c0,7.9-6.4,14.1-14.1,14.1c-7.7,0-14.1-6.4-14.1-14.1c0-7.7,6.4-14.2,14.1-14.2
			C611.6,232.5,618,239,618,246.7L618,246.7z"/>
		<path class="st8" d="M477.3,638.2c0,7.9-6.4,14.1-14.1,14.1s-14.1-6.4-14.1-14.1s6.4-14.1,14.1-14.1S477.3,630.3,477.3,638.2
			L477.3,638.2z"/>
		<path class="st8" d="M531.7,858c0,7.9-6.4,14.2-14.1,14.2c-7.7,0-14.2-6.4-14.2-14.1c0-7.9,6.4-14.2,14.1-14.2
			C525.2,843.9,531.7,850.2,531.7,858L531.7,858z"/>
		<path class="st8" d="M606.5,1018.6c0,7.9-6.4,14.2-14.1,14.2c-7.9,0-14.2-6.4-14.2-14.1c0-7.9,6.4-14.2,14.1-14.2l0,0
			C600.1,1004.4,606.5,1010.8,606.5,1018.6z"/>
		<path class="st8" d="M1828,538.6c-1.1-0.2-1.1-0.2-0.6-0.2c1.6-0.1,3.2,0,4.7,0.4c3.6,0.9,6.9,3.1,10.4,7l0.9,1.1l1.3-0.2
			c5.5-0.9,11.1-0.2,16.1,2c1.3,0.6,2.5,1.3,3.6,2.1c0.2,0.5,0.3,0.9,0.3,1.4c0.3,2.4,0.2,4.1-0.6,5.5c-0.5,0.7-0.4,1.6,0.3,2.2
			c0.3,0.2,0.6,0.3,0.9,0.3c1.2,0,2.5-1.9,3.1-4.6l0.2-1.1l0.5,0.5c2.6,2.9,4.6,6.9,4.9,9.7l0.1,0.8l-0.4-0.7
			c-0.6-1-1.4-1.9-2.4-2.6c-1.7-1.2-3.5-1.5-8.3-1.8c-3.1,0-6.2-0.5-9.2-1.4c-4.1-1.4-6.3-3.1-11.2-9.6c-1.5-2-3.1-4-4.9-5.8
			C1835.2,540.9,1831.8,539.1,1828,538.6z"/>
		<path class="st8" d="M1865.6,545c0-1.5,0.3-3,0.9-4.3c0.1-0.3,0.3-0.6,0.4-0.9c0,0.3-0.1,0.5-0.2,0.8c-0.4,1.4-0.5,3-0.2,4.4
			c0.3,2.3,0.5,2.6,2.9,5c1.1,1.2,2.4,2.6,2.9,3.2l0.8,1.1l-0.8-0.8c-1.2-1.2-2.6-2.2-4-3.2c-0.3-0.2-0.4-0.2-0.7,0s-0.3,0.5-0.3,2
			c0.1,1.8-0.3,3.5-1.1,5.1c-0.4,0.8-0.4,0.6-0.1-0.2c0.3-0.7,0.3-1,0.3-3.1c0-4.4-0.5-5.5-3.6-7.2c-0.8-0.5-2.1-1.1-2.8-1.5
			c-0.5-0.2-0.9-0.4-1.4-0.7c1.4,0.3,2.9,0.7,4.2,1.3c1.8,0.7,2.1,0.8,2.3,0.7S1865.5,546.2,1865.6,545z"/>
		<path class="st8" d="M1830.1,552.5c-2.2-3.2-3.3-7-3.2-10.8l0.1-1.1l0.5,0.1c1.1,0.2,2.2,0.7,3.2,1.2c2,1.2,2.9,2.9,3.8,7
			c0.2,1.2,0.6,2.6,0.8,3.1c0.5,1.3,1.2,2.5,2,3.6c0.6,0.8,0.2,1.2-1.1,1.1C1834.3,556.5,1831.7,554.8,1830.1,552.5z"/>
		<path class="st8" d="M1863,574.4c-10-4-13.5-7.5-13.5-13.4c0-0.9,0-1.6,0-1.6c0.3,0.2,0.6,0.4,0.8,0.7c2,1.6,4.3,2.3,10.6,3.2
			c2.6,0.3,5.2,0.8,7.7,1.6c6.1,2,9.9,6.2,10.8,11.8c0.2,2.1,0.1,4.2-0.3,6.3c-0.3,1.3-0.9,2.5-1.6,3.6c-0.1,0-0.2-0.2-0.2-0.7
			c-0.2-2.2-1.2-4.3-2.9-5.7C1872.4,578.5,1869.7,577.1,1863,574.4z"/>
		<path class="st8" d="M1856,576.1c-0.1-0.7-0.3-1.4-0.5-2.1l-0.2-0.8l0.5,0.5c0.7,0.9,1.3,1.9,1.6,2.9c0.3,0.9,0.4,1.9,0.3,2.8
			c0.1,0.9,0,1.8-0.3,2.7c-0.4,1.3-1.2,2.4-2.1,3.4c-1.8,1.9-4.2,2.9-7.6,3.3c-0.6,0-2.3,0.2-3.8,0.3c-2.9,0-5.8,0.5-8.6,1.4
			c-0.3,0.1-0.6,0.2-0.7,0.2c0.8-0.7,1.7-1.2,2.7-1.6c1.8-0.9,3.6-1.3,7.6-2c1.5-0.2,3-0.5,4.5-0.9
			C1854.3,584.7,1856.8,580.8,1856,576.1z"/>
		<path class="st8" d="M1860.5,584.2c-1.3-2.5-1.6-5.4-0.9-8.2c0.1-0.2,0.2-0.5,0.3-0.5c0.3,0.1,0.5,0.2,0.7,0.3
			c0.6,0.4,1.9,1.1,5.1,2.9c4.1,2.2,6.4,3.9,8,5.9c1.4,1.8,2.3,3.9,2.7,6.1c0.2,2,0.1,4-0.2,6c-1,4.1-3.6,7.6-7.3,9.7
			c-0.3,0.2-0.7,0.4-1,0.5c0.1-0.4,0.2-0.8,0.4-1.1c1.2-2.4,1.4-5.3,0.4-7.8c-0.6-1.7-1.7-3.8-4-7.3
			C1863.2,588.7,1861.8,586.5,1860.5,584.2z"/>
		<path class="st8" d="M1823,599.7c3.6-3.1,7.9-5.1,12.6-6c2.2-0.3,4.4-0.2,6.5,0.2c2.5,0.6,4.8,2,6.4,4.1c1.2,1.8,1.8,3.4,2.3,6.9
			c0.2,1.4,0.5,2.8,0.5,3.1c0.3,1.6,1,3,2.2,4c1.6,1.2,4.3,1.2,7,0.2c0.3-0.1,0.6-0.2,0.9-0.2c-0.6,0.6-1.4,1.1-2.2,1.5
			c-1.1,0.6-2.4,0.9-3.6,0.9c-2.4,0-4.5-1.3-6.2-3.8c-0.6-1.1-1.2-2.2-1.7-3.3c-1.8-4.1-2.7-5.3-4.7-6.7c-1.7-1.2-4-1.4-5.9-0.6
			c-1.9,0.9-2.7,3.2-1.9,5.1c0.1,0.3,0.3,0.6,0.5,0.8c0.8,0.8,1.8,1.3,2.9,1.5c1.7,0.2,3.2-1,3.5-2.6c0-0.1,0-0.3,0-0.4
			c0.1-1.1-0.6-2.1-1.7-2.5c-1.6-0.7-3.4,0.1-3.3,1.7c0,0.6,0.4,1.2,1,1.4c0.4,0.2,0.4,0.2,0.1,0.2c-1.5-0.3-1.8-2.1-0.7-3.3
			c1.4-1.4,4.4-0.8,5.4,1.2c0.4,1.1,0.4,2.3,0.1,3.4c-0.9,2.3-3.4,3.4-5.8,2.7c-1.7-0.5-2.4-0.9-4.4-3c-3.5-3.6-4.9-4.3-9.9-5.1
			l-1-0.2L1823,599.7z"/>
		<path class="st8" d="M1796.4,518.5c11.8,14.3,29.9,36.5,30.8,37.7c0.8,1,0.4,2-0.8,2.7c-0.9,0.5-1.9,0.7-2.9,0.8
			c-0.9,0-1.8-0.4-2.4-1.1c-0.4-0.5-2.4-3.3-6.9-10.2c-3.4-5.3-6.3-9.7-6.3-9.7c-0.2-0.1-0.2-0.1,5.9,10.9c3.9,6.9,5.1,9.4,5.1,9.7
			c0,0.7-0.2,1-1,1.9c-1.4,1.5-2,3.2-2.4,6.8c-0.5,4-1.9,6.8-5.8,11.6c-2.3,2.8-2.6,3.3-3.2,4.5c-0.7,1.2-1,2.6-1,4
			c-0.1,1.7,0.1,3.4,0.6,5c0.5,1.7,1.4,3.3,2.4,4.8c0.8,1.1,1.5,2.4,1.9,3.7c0,0.4,0.1,0.4,1.9,0c4.3-1,7.9-2.7,9.9-4.8
			c1.1-1,1.6-2.4,1.5-3.8c0.1-0.7,0-1.5-0.3-2.1c-0.5-1.1-1.5-2-3.5-3.4c-2.7-1.9-3.9-3.4-4.2-5.4c-0.2-1.7,0-2.9,1.6-6.1
			c1.3-2.5,2.1-5.2,2.2-8c0.2-2.1,0.4-3,1-3.6s1.2-1,2.8-1.2c2.6-0.4,4.2-1,5.6-2.3c1.1-0.9,1.7-2.3,1.7-3.7V556l-0.7-0.7
			c-2.4-2.7-35.2-38.8-35.4-38.8S1795.5,517.3,1796.4,518.5z M1811.9,590.2c0.5-1,0.3-2.2-0.7-2.8c-0.9-0.5-2.2-0.3-2.2,0.5
			c0,0.2,0.2,0.4,0.4,0.5c0.5,0.2,0.5,0.5,0.2,1.1s-0.3,1.1,0.1,1.4c0.6,0.5,1.5,0.3,2-0.3C1811.8,590.4,1811.9,590.3,1811.9,590.2z
			"/>
		<path class="st8" d="M1832.4,563.7c-1.3,0.5-2.4,1.6-2.7,3c-0.2,0.9-0.1,1.9,0.2,2.7c0.6,0.7,1.1,0.9,2.5,0.9
			c2.8,0,5.1-1.2,5.4-2.7c0.2-1.2-0.8-2.9-2.3-3.6C1834.5,563.6,1833.4,563.5,1832.4,563.7z M1835.6,566.2c0.4-0.5,0.2-1.2-0.3-1.6
			c-0.1-0.1-0.2-0.1-0.2-0.1c-1.4-0.9-3.4-0.2-3.4,1.2c0,0.7,1.1,1.4,2.1,1.4C1834.4,567,1835.1,566.7,1835.6,566.2L1835.6,566.2z"
			/>
		<g class="st6">
			<path class="st7" d="M347.9,130.6h-11.6l-2.6,7.2H330l10.6-27.8h3.2l10.6,27.8h-3.7L347.9,130.6z M337.4,127.5h9.4l-4.7-13
				L337.4,127.5z"/>
			<path class="st7" d="M374.9,127.7c0,3.2-0.7,5.7-2.2,7.6c-1.4,1.9-3.3,2.9-5.8,2.9s-4.4-0.8-5.9-2.4v10h-3.5v-28.6h3.2l0.1,2.4
				c1.4-1.8,3.5-2.6,5.9-2.6c2.5,0,4.4,1,5.9,2.8c1.4,1.9,2.2,4.4,2.2,7.7L374.9,127.7L374.9,127.7z M371.4,127.2
				c0-2.4-0.6-4.1-1.5-5.5c-1-1.4-2.4-2.1-4-2.1c-2.1,0-3.7,1-4.8,2.9v9.8c1.1,1.9,2.6,2.8,4.8,2.8c1.7,0,3-0.7,4-2.1
				C370.8,131.9,371.4,129.9,371.4,127.2z"/>
			<path class="st7" d="M396.7,127.7c0,3.2-0.7,5.7-2.2,7.6c-1.4,1.9-3.3,2.9-5.8,2.9s-4.4-0.8-5.9-2.4v10h-3.5v-28.6h3.2l0.1,2.4
				c1.4-1.8,3.5-2.6,5.9-2.6c2.5,0,4.4,1,5.9,2.8c1.4,1.9,2.2,4.4,2.2,7.7L396.7,127.7L396.7,127.7z M393.2,127.2
				c0-2.4-0.6-4.1-1.5-5.5s-2.4-2.1-4-2.1c-2.1,0-3.7,1-4.8,2.9v9.8c1.1,1.9,2.6,2.8,4.8,2.8c1.7,0,3-0.7,4-2.1
				C392.7,131.9,393.2,129.9,393.2,127.2z"/>
			<path class="st7" d="M413.3,132.4c0-1-0.4-1.7-1.1-2.2c-0.7-0.6-1.9-1-3.7-1.4c-1.8-0.4-3.2-0.8-4.3-1.4
				c-1.1-0.6-1.8-1.1-2.4-1.9c-0.6-0.7-0.7-1.7-0.7-2.6c0-1.7,0.7-3.2,2.2-4.3c1.4-1.1,3.3-1.8,5.5-1.8c2.4,0,4.3,0.6,5.7,1.8
				c1.5,1.2,2.2,2.8,2.2,4.6h-3.6c0-1-0.4-1.8-1.2-2.5c-0.8-0.7-1.8-1.1-3-1.1s-2.4,0.3-3,0.8c-0.7,0.6-1.1,1.2-1.1,2.2
				c0,0.8,0.3,1.5,1,1.9s1.9,0.8,3.6,1.2c1.8,0.4,3.2,0.8,4.3,1.4s1.9,1.2,2.5,1.9c0.6,0.8,0.8,1.7,0.8,2.8c0,1.8-0.7,3.3-2.2,4.4
				c-1.5,1.1-3.3,1.7-5.7,1.7c-1.7,0-3.2-0.3-4.4-0.8c-1.2-0.6-2.2-1.4-3-2.5s-1.1-2.2-1.1-3.5h3.5c0,1.2,0.6,2.1,1.4,2.8
				s2.1,1.1,3.5,1.1s2.4-0.3,3.2-0.8C412.7,133.6,413.3,133.2,413.3,132.4z"/>
			<path class="st7" d="M430.3,130.3c0-1.4,0.4-2.6,1.1-3.7s2.2-2.5,4.3-3.9c-1.2-1.5-2.1-2.8-2.5-3.6c-0.4-1-0.7-1.8-0.7-2.8
				c0-2.1,0.7-3.7,1.9-5s2.9-1.8,5.1-1.8c1.9,0,3.5,0.6,4.7,1.7s1.9,2.5,1.9,4.1c0,1.1-0.3,2.2-0.8,3c-0.6,1-1.5,1.9-2.9,3l-2.1,1.5
				l6.2,7.3c0.8-1.7,1.2-3.5,1.2-5.5h3.2c0,3.2-0.8,5.9-2.4,8l4,4.7h-4.3l-1.8-2.2c-1,0.8-2.1,1.5-3.3,1.9c-1.2,0.4-2.5,0.7-3.9,0.7
				c-2.8,0-4.8-0.7-6.5-2.2S430.3,132.6,430.3,130.3z M439.3,135.3c1.9,0,3.6-0.7,5.1-2.1l-6.8-8.2l-0.7,0.4
				c-2.1,1.5-3.2,3.2-3.2,4.8c0,1.5,0.6,2.8,1.5,3.6C436.3,134.7,437.5,135.3,439.3,135.3z M436.1,116.3c0,1.2,0.7,2.8,2.2,4.6
				l2.2-1.5c0.8-0.6,1.5-1.2,1.8-1.8c0.3-0.6,0.4-1.2,0.4-2.1s-0.3-1.5-1-2.1s-1.4-0.8-2.4-0.8c-1.1,0-1.9,0.4-2.5,1.1
				C436.4,114.2,436.1,115.2,436.1,116.3z"/>
			<path class="st7" d="M473.6,125.4c-3.2-1-5.4-2.1-6.9-3.3c-1.4-1.4-2.1-2.9-2.1-4.8c0-2.2,0.8-4,2.6-5.4c1.8-1.4,4-2.1,6.8-2.1
				c1.9,0,3.6,0.4,5.1,1.1s2.6,1.8,3.5,3c0.8,1.2,1.2,2.8,1.2,4.3h-3.7c0-1.7-0.6-3-1.7-4s-2.6-1.4-4.6-1.4c-1.8,0-3.2,0.4-4.3,1.2
				c-1,0.8-1.5,1.9-1.5,3.3c0,1.1,0.4,2.1,1.4,2.9s2.6,1.5,4.8,2.2c2.4,0.7,4.1,1.4,5.4,2.2c1.2,0.8,2.2,1.7,2.9,2.8
				c0.7,1.1,1,2.2,1,3.7c0,2.2-0.8,4-2.6,5.4s-4.1,2.1-7.1,2.1c-1.9,0-3.7-0.4-5.4-1.1c-1.7-0.7-2.9-1.8-3.9-3
				c-0.8-1.2-1.4-2.8-1.4-4.3h3.7c0,1.7,0.6,3,1.8,4s2.9,1.5,5,1.5c1.9,0,3.5-0.4,4.4-1.2c1-0.8,1.5-1.8,1.5-3.2s-0.4-2.4-1.4-3.2
				C477.9,126.8,476.2,126.1,473.6,125.4z"/>
			<path class="st7" d="M540.3,125.4c-3.2-1-5.4-2.1-6.9-3.3c-1.4-1.4-2.1-2.9-2.1-4.8c0-2.2,0.8-4,2.6-5.4s4-2.1,6.8-2.1
				c1.9,0,3.6,0.4,5.1,1.1s2.6,1.8,3.5,3c0.8,1.2,1.2,2.8,1.2,4.3h-3.7c0-1.7-0.6-3-1.7-4c-1.1-1-2.6-1.4-4.6-1.4
				c-1.8,0-3.2,0.4-4.3,1.2c-1,0.8-1.5,1.9-1.5,3.3c0,1.1,0.4,2.1,1.4,2.9s2.6,1.5,4.8,2.2c2.4,0.7,4.1,1.4,5.4,2.2
				c1.2,0.8,2.2,1.7,2.9,2.8s1,2.2,1,3.7c0,2.2-0.8,4-2.6,5.4c-1.8,1.4-4.1,2.1-7.1,2.1c-1.9,0-3.7-0.4-5.4-1.1
				c-1.7-0.7-2.9-1.8-3.9-3c-0.8-1.2-1.4-2.8-1.4-4.3h3.7c0,1.7,0.6,3,1.8,4c1.2,1,2.9,1.5,5,1.5c1.9,0,3.5-0.4,4.4-1.2
				c1-0.8,1.5-1.8,1.5-3.2s-0.4-2.4-1.4-3.2C544.6,126.8,542.9,126.1,540.3,125.4z"/>
			<path class="st7" d="M500.9,137.8c-0.1-0.4-0.4-1.1-0.6-2.2c-1.7,1.7-3.6,2.5-5.8,2.5c-2.1,0-3.7-0.6-5-1.7s-1.9-2.6-1.9-4.4
				c0-2.2,0.8-3.9,2.5-5c1.7-1.2,3.9-1.8,6.9-1.8h3.5v-1.7c0-1.2-0.4-2.2-1.1-2.9c-0.7-0.7-1.8-1.1-3.3-1.1c-1.2,0-2.4,0.3-3.2,1
				c-0.8,0.7-1.2,1.4-1.2,2.4H488c0-1,0.4-2.1,1.1-3c0.7-1,1.7-1.7,2.9-2.2c1.2-0.6,2.6-0.8,4.1-0.8c2.4,0,4.3,0.6,5.5,1.8
				c1.4,1.2,2.1,2.8,2.1,4.8v9.5c0,1.9,0.3,3.5,0.7,4.6v0.3L500.9,137.8L500.9,137.8z M495,135.1c1.1,0,2.2-0.3,3.2-0.8
				c1-0.6,1.7-1.4,2.2-2.2v-4.3h-2.8c-4.3,0-6.5,1.2-6.5,3.7c0,1.1,0.4,1.9,1.1,2.6C493,134.8,493.8,135.1,495,135.1z"/>
			<path class="st7" d="M522,137.8c-0.1-0.4-0.4-1.1-0.6-2.2c-1.7,1.7-3.6,2.5-5.8,2.5c-2.1,0-3.7-0.6-5-1.7s-1.9-2.6-1.9-4.4
				c0-2.2,0.8-3.9,2.5-5c1.7-1.2,3.9-1.8,6.9-1.8h3.5v-1.7c0-1.2-0.4-2.2-1.1-2.9c-0.7-0.7-1.8-1.1-3.3-1.1c-1.2,0-2.4,0.3-3.2,1
				s-1.2,1.4-1.2,2.4h-3.6c0-1,0.4-2.1,1.1-3s1.7-1.7,2.9-2.2c1.2-0.6,2.6-0.8,4.1-0.8c2.4,0,4.3,0.6,5.5,1.8
				c1.4,1.2,2.1,2.8,2.1,4.8v9.5c0,1.9,0.3,3.5,0.7,4.6v0.3L522,137.8L522,137.8z M516.2,135.1c1.1,0,2.2-0.3,3.2-0.8
				s1.7-1.4,2.2-2.2v-4.3h-2.8c-4.3,0-6.5,1.2-6.5,3.7c0,1.1,0.4,1.9,1.1,2.6C514.1,134.8,515.1,135.1,516.2,135.1z"/>
		</g>
		<g class="st6">
			<path class="st13" d="M273.2,183.8c0-2.9,0.4-5.7,1.1-8.3c0.8-2.6,1.9-5,3.5-7.2c1.5-2.2,3-3.7,4.7-4.6l0.7,2.4
				c-1.8,1.4-3.3,3.6-4.6,6.5c-1.2,2.9-1.8,6.2-1.9,9.8v1.7c0,4.8,0.8,9.1,2.6,12.7c1.1,2.2,2.4,3.9,3.9,5.1l-0.7,2.2
				c-1.7-1-3.3-2.5-4.8-4.7C274.7,194.9,273.2,189.8,273.2,183.8z"/>
			<path class="st13" d="M287.2,195v-27.8h7.9c2.4,0,4.6,0.6,6.4,1.7c1.8,1.1,3.3,2.6,4.3,4.6c1,1.9,1.5,4.3,1.5,6.8v1.8
				c0,2.6-0.6,5-1.5,6.9c-1,1.9-2.5,3.5-4.3,4.6s-4,1.7-6.5,1.7h-7.7L287.2,195L287.2,195z M290.9,170.3V192h3.9
				c2.8,0,5-0.8,6.6-2.6c1.5-1.8,2.4-4.3,2.4-7.5v-1.7c0-3.2-0.7-5.7-2.2-7.3c-1.5-1.8-3.6-2.6-6.4-2.6L290.9,170.3L290.9,170.3z"/>
			<path class="st13" d="M325.1,195c-0.1-0.4-0.4-1.1-0.6-2.2c-1.7,1.7-3.6,2.5-5.8,2.5c-2.1,0-3.7-0.6-5-1.7s-1.9-2.6-1.9-4.4
				c0-2.2,0.8-3.9,2.5-5c1.7-1.2,3.9-1.8,6.9-1.8h3.5v-1.7c0-1.2-0.4-2.2-1.1-2.9s-1.8-1.1-3.3-1.1c-1.2,0-2.4,0.3-3.2,1
				c-0.8,0.7-1.2,1.4-1.2,2.4h-3.6c0-1,0.4-2.1,1.1-3c0.7-1,1.7-1.7,2.9-2.2c1.2-0.6,2.6-0.8,4.1-0.8c2.4,0,4.3,0.6,5.5,1.8
				c1.4,1.2,2.1,2.8,2.1,4.8v9.5c0,1.9,0.3,3.5,0.7,4.6v0.3L325.1,195L325.1,195z M319.1,192.4c1.1,0,2.2-0.3,3.2-0.8
				c1-0.6,1.7-1.4,2.2-2.2v-4.3h-2.8c-4.3,0-6.5,1.2-6.5,3.7c0,1.1,0.4,1.9,1.1,2.6C317,192.1,318,192.4,319.1,192.4z"/>
			<path class="st13" d="M338.3,169.4v5h3.9v2.8h-3.9V190c0,0.8,0.1,1.4,0.6,1.8c0.4,0.4,1,0.6,1.8,0.6c0.4,0,1-0.1,1.7-0.3v2.9
				c-1,0.3-1.8,0.4-2.8,0.4c-1.5,0-2.8-0.4-3.6-1.4c-0.8-1-1.2-2.4-1.2-4v-12.7H331v-2.8h3.7v-5h3.6L338.3,169.4L338.3,169.4z"/>
			<path class="st13" d="M358.9,195c-0.1-0.4-0.4-1.1-0.6-2.2c-1.7,1.7-3.6,2.5-5.8,2.5c-2.1,0-3.7-0.6-5-1.7
				c-1.2-1.1-1.9-2.6-1.9-4.4c0-2.2,0.8-3.9,2.5-5c1.7-1.2,3.9-1.8,6.9-1.8h3.5v-1.7c0-1.2-0.4-2.2-1.1-2.9s-1.8-1.1-3.3-1.1
				c-1.2,0-2.4,0.3-3.2,1c-0.8,0.7-1.2,1.4-1.2,2.4h-3.6c0-1,0.4-2.1,1.1-3c0.7-1,1.7-1.7,2.9-2.2c1.2-0.6,2.6-0.8,4.1-0.8
				c2.4,0,4.3,0.6,5.5,1.8c1.4,1.2,2.1,2.8,2.1,4.8v9.5c0,1.9,0.3,3.5,0.7,4.6v0.3L358.9,195L358.9,195z M353.1,192.4
				c1.1,0,2.2-0.3,3.2-0.8c1-0.6,1.7-1.4,2.2-2.2v-4.3h-2.8c-4.3,0-6.5,1.2-6.5,3.7c0,1.1,0.4,1.9,1.1,2.6
				C351.1,192.1,352,192.4,353.1,192.4z"/>
			<path class="st13" d="M376.4,187.5c0-1.4,0.4-2.6,1.1-3.7s2.2-2.5,4.3-3.9c-1.2-1.5-2.1-2.8-2.5-3.6c-0.4-1-0.7-1.8-0.7-2.8
				c0-2.1,0.7-3.7,1.9-5c1.2-1.2,2.9-1.8,5.1-1.8c1.9,0,3.5,0.6,4.7,1.7s1.9,2.5,1.9,4.1c0,1.1-0.3,2.2-0.8,3c-0.6,1-1.5,1.9-2.9,3
				l-2.1,1.5l6.2,7.3c0.8-1.7,1.2-3.5,1.2-5.5h3.2c0,3.2-0.8,5.9-2.4,8l4,4.7h-4.3l-1.8-2.2c-1,0.8-2.1,1.5-3.3,1.9
				c-1.2,0.4-2.5,0.7-3.9,0.7c-2.8,0-4.8-0.7-6.5-2.2C377.3,191.4,376.4,189.9,376.4,187.5z M385.4,192.5c1.9,0,3.6-0.7,5.1-2.1
				l-6.8-8.2l-0.7,0.4c-2.1,1.5-3.2,3.2-3.2,4.8c0,1.5,0.6,2.8,1.5,3.6C382.3,192,383.7,192.5,385.4,192.5z M382.2,173.6
				c0,1.2,0.7,2.8,2.2,4.6l2.2-1.5c0.8-0.6,1.5-1.2,1.8-1.8s0.4-1.2,0.4-2.1s-0.3-1.5-1-2.1s-1.4-0.8-2.4-0.8
				c-1.1,0-1.9,0.4-2.5,1.1C382.5,171.5,382.2,172.5,382.2,173.6z"/>
			<path class="st13" d="M415.2,184.1V195h-3.6v-27.8h10.2c3,0,5.4,0.8,7.2,2.4c1.7,1.5,2.6,3.6,2.6,6.2c0,2.6-0.8,4.7-2.5,6.2
				s-4.1,2.2-7.2,2.2L415.2,184.1L415.2,184.1L415.2,184.1z M415.2,181.2h6.6c1.9,0,3.5-0.4,4.6-1.4s1.5-2.2,1.5-4
				c0-1.7-0.6-3-1.5-4c-1-1-2.5-1.5-4.3-1.5h-6.8v10.9H415.2z"/>
			<path class="st13" d="M445.7,177.6c-0.6-0.1-1.1-0.1-1.8-0.1c-2.4,0-3.9,1-4.7,2.9V195h-3.5v-20.6h3.5v2.4c1.1-1.8,2.8-2.8,5-2.8
				c0.7,0,1.2,0.1,1.5,0.3V177.6L445.7,177.6z"/>
			<path class="st13" d="M448.8,168.9c0-0.6,0.1-1.1,0.6-1.4c0.4-0.4,0.8-0.6,1.5-0.6s1.2,0.1,1.5,0.6c0.4,0.4,0.6,0.8,0.6,1.4
				c0,0.6-0.1,1.1-0.6,1.4c-0.4,0.4-0.8,0.6-1.5,0.6s-1.2-0.1-1.5-0.6C449.1,170,448.8,169.4,448.8,168.9z M452.7,195h-3.5v-20.6
				h3.5V195z"/>
		</g>
		<g class="st6">
			<path class="st13" d="M465.2,190.2l5.1-15.9h3.6l-7.3,20.6H464l-7.5-20.6h3.6L465.2,190.2z"/>
		</g>
		<g class="st6">
			<path class="st13" d="M489.8,195c-0.1-0.4-0.4-1.1-0.6-2.2c-1.7,1.7-3.6,2.5-5.8,2.5c-2.1,0-3.7-0.6-5-1.7
				c-1.2-1.1-1.9-2.6-1.9-4.4c0-2.2,0.8-3.9,2.5-5c1.7-1.2,3.9-1.8,6.9-1.8h3.5v-1.7c0-1.2-0.4-2.2-1.1-2.9s-1.8-1.1-3.3-1.1
				c-1.2,0-2.4,0.3-3.2,1c-0.8,0.7-1.2,1.4-1.2,2.4h-3.7c0-1,0.4-2.1,1.1-3c0.7-1,1.7-1.7,2.9-2.2s2.6-0.8,4.1-0.8
				c2.4,0,4.3,0.6,5.5,1.8c1.4,1.2,2.1,2.8,2.1,4.8v9.5c0,1.9,0.3,3.5,0.7,4.6v0.3L489.8,195L489.8,195z M483.8,192.4
				c1.1,0,2.2-0.3,3.2-0.8c1-0.6,1.7-1.4,2.2-2.2v-4.3h-2.8c-4.3,0-6.5,1.2-6.5,3.7c0,1.1,0.4,1.9,1.1,2.6
				C481.8,192.1,482.7,192.4,483.8,192.4z"/>
			<path class="st13" d="M506.5,192.5c1.2,0,2.4-0.4,3.3-1.1c1-0.7,1.5-1.7,1.5-2.9h3.3c0,1.2-0.4,2.4-1.2,3.3c-0.8,1-1.8,1.9-3,2.5
				c-1.2,0.7-2.6,1-4,1c-2.8,0-5-1-6.6-2.8c-1.7-1.9-2.5-4.4-2.5-7.7v-0.6c0-2.1,0.4-3.7,1.1-5.4s1.8-2.8,3.2-3.6s3-1.2,4.8-1.2
				c2.4,0,4.3,0.7,5.8,2.1c1.5,1.4,2.4,3.2,2.5,5.4h-3.3c-0.1-1.4-0.6-2.5-1.5-3.3c-1-0.8-2.1-1.2-3.3-1.2c-1.8,0-3.2,0.7-4.1,1.9
				c-1,1.2-1.5,3.2-1.5,5.5v0.7c0,2.4,0.6,4.1,1.5,5.5C503.3,191.8,504.7,192.5,506.5,192.5z"/>
			<path class="st13" d="M525.3,189.9l4.8-15.5h3.7l-8.3,23.8c-1.2,3.5-3.3,5.1-6.1,5.1h-0.7l-1.4-0.3v-2.9l1,0.1
				c1.2,0,2.1-0.3,2.8-0.7s1.2-1.4,1.7-2.6l0.8-2.1l-7.3-20.3h3.9L525.3,189.9z"/>
			<path class="st13" d="M545.2,183.9c0,2.8-0.4,5.5-1.1,8.2s-1.9,5-3.5,7.2c-1.5,2.2-3.2,3.7-4.8,4.7l-0.7-2.2
				c1.9-1.5,3.6-3.9,4.7-6.9c1.2-3.2,1.8-6.6,1.8-10.5v-0.6c0-2.6-0.3-5.1-0.8-7.5c-0.6-2.4-1.4-4.3-2.4-6.2c-1-1.8-2.1-3.2-3.3-4.3
				l0.7-2.2c1.7,1,3.3,2.5,4.8,4.7s2.6,4.6,3.5,7.2C544.8,178.1,545.2,180.9,545.2,183.9z"/>
		</g>
		<g id="Layer_1-2-2">
			<path class="st8" d="M1806.1,735l6.3-3.4l0.8,1.5l23.2-13.4l-1.5-1.1l-1.9-1.1l-0.7-0.4l-38.1,22v0.8l10.8-6L1806.1,735z
				 M1806.1,749.2l18.3-10.8l0.8,1.5l23.5-13.5l-1.9-1.1l-1.9-0.8l-0.7-0.4l-50.1,28.8v0.7l10.8-6L1806.1,749.2z M1806.1,755.9
				l24.2-13.8l0.8,1.1l23.5-13.5l-1.9-0.8l-1.9-1.1l-0.8-0.4l-56,32.1v1.1l10.8-6.3L1806.1,755.9z M1806.1,762.6l30.2-17.2l0.8,1.1
				l23.5-13.1l-1.9-1.1l-1.9-1.1l-0.8-0.4l-62,35.9v0.8l10.8-6L1806.1,762.6z M1806.1,769.7l36.2-20.9l0.7,1.5l23.5-13.5l-1.9-1.1
				l-1.5-0.8l-1.1-0.8l-68,39.2v1.1l10.8-6.3L1806.1,769.7z M1868.8,738.4l-0.8-0.8l-74,43v0.7l10.8-6l1.1,1.5l36.2-21.3l0.7,1.5
				l27.3-15.3v-2.6L1868.8,738.4z M1799,785.8l6-3.7l0.8,1.5l36.6-20.9l0.7,1.5l27.3-15.7v-4.9l-72.5,41.5L1799,785.8z
				 M1842.3,769.8l0.7,1.5l27.3-16.1v-4.9l-66.5,38.5l1.1,0.4l6-3.7l1.1,1.5 M1810.9,792.6l6.3-3.4l0.8,1.5l24.3-14.2l0.7,1.5
				l27.3-15.7v-4.9l-60.5,34.8L1810.9,792.6z M1816.9,795.9l6.4-3.4l0.8,1.5l18.3-10.5l0.7,1.5l27.3-15.7v-5.2l-54.6,31.4
				L1816.9,795.9z M1821.8,798.9l1.1,0.8l6.3-3.7l0.8,1.5l12.3-7.1l0.7,1.5l27.3-15.7v-4.9L1821.8,798.9z M1828.9,803.1l6-3.7
				l1.1,1.5l6.4-3.4l0.7,1.5l27.2-15.7V778l-42.2,24.7L1828.9,803.1z M1842.7,723.1l-1.9-1.1l-1.9-0.7l-0.7-0.8l-44.1,25.4v1.1
				l10.8-6.4l1.1,1.5l12.3-7.1l0.8,1.5L1842.7,723.1z"/>
		</g>
		<path id="SVGID-2" class="st14" d="M1764.5,964.3c-21,0-38.1-6.1-38.1-14.2c0-4.3,4.7-8.1,12.1-10.8c5.8,3.7,15.6,5.6,26.6,5.6
			c10.8,0,20.3-2.3,26.2-5.9c7,2.7,11.4,6.4,11.4,10.5C1802.7,957.7,1785.6,964.3,1764.5,964.3z"/>
		<path id="SVGID-3" class="st14" d="M1764.8,943.1c-16,0-28.9-5-28.9-11.2c0-3.4,4-6.5,10.2-8.5c4.5,2.3,11.2,3.8,18.7,3.8
			s14.2-1.5,18.7-3.8c6.3,2,10.2,5.1,10.2,8.5C1793.7,938,1780.7,943.1,1764.8,943.1z"/>
		<path id="SVGID-4" class="st14" d="M1764.7,925.3c-12.3,0-22.3-4.1-22.3-9.2s10-9.2,22.3-9.2s22.3,4.1,22.3,9.2
			S1777,925.3,1764.7,925.3z"/>
		<polygon class="st15" points="1206,439.3 1102.8,377.6 1206,315.9 1309.2,377.6 		"/>
		<g class="st16">
			<polygon class="st15" points="1204.6,170.2 1101.5,108.6 1204.6,46.9 1307.8,108.6 			"/>
			<polygon class="st15" points="1204.6,439.3 1100.9,377.6 1100.9,108.6 1204.6,170.2 			"/>
			<polygon class="st15" points="1204.6,439.3 1308.4,377.6 1308.4,108.6 1204.6,170.2 			"/>
			<line class="st15" x1="1204.6" y1="46.9" x2="1204.6" y2="170.2"/>
		</g>
		<polygon class="st15" points="1206,1242.3 1102.8,1180.7 1206,1119 1309.2,1180.7 		"/>
		<g class="st16">
			<polygon class="st15" points="1204.6,973.3 1101.5,911.6 1204.6,850 1307.8,911.6 			"/>
			<polygon class="st15" points="1204.6,1242.3 1100.9,1180.7 1100.9,911.6 1204.6,973.3 			"/>
			<polygon class="st15" points="1204.6,1242.3 1308.4,1180.7 1308.4,911.6 1204.6,973.3 			"/>
			<line class="st15" x1="1204.6" y1="850" x2="1204.6" y2="973.3"/>
		</g>
	</g>
</g>
</svg>
